<svg width="29" height="26" viewBox="0 0 29 26" fill="none" xmlns="http://www.w3.org/2000/svg">
<g clip-path="url(#clip0)">
<path d="M16.9022 18.6852L28.6674 8.15909C29.1103 7.76279 29.1109 7.11975 28.669 6.72279C28.2271 6.32573 27.5099 6.32507 27.067 6.72127L15.301 17.2482C14.8593 17.6442 14.1407 17.6442 13.6981 17.2474L1.93296 6.72127C1.49009 6.32507 0.772844 6.32573 0.330935 6.72279C0.110262 6.92099 -1.52918e-05 7.18064 -1.53032e-05 7.44018C-1.53146e-05 7.70043 0.110886 7.96069 0.332632 8.15909L12.0969 18.6845C13.422 19.8724 15.578 19.8724 16.9022 18.6852Z" fill="#436395"/>
</g>
<defs>
<clipPath id="clip0">
<rect width="26" height="29" fill="white" transform="translate(29) rotate(90)"/>
</clipPath>
</defs>
</svg>
