<svg width="201" height="245" viewBox="0 0 201 245" fill="none" xmlns="http://www.w3.org/2000/svg">
<path fill-rule="evenodd" clip-rule="evenodd" d="M160.007 117.794C159.07 117.677 158.367 116.857 158.367 115.919C158.484 114.981 159.187 114.161 160.242 114.278C161.18 114.278 162 115.099 161.883 116.153C161.766 117.208 160.945 117.912 160.007 117.794Z" fill="#173D7B"/>
<path fill-rule="evenodd" clip-rule="evenodd" d="M158.953 127.288C158.015 127.171 157.312 126.233 157.429 125.296C157.546 124.358 158.484 123.655 159.421 123.772C160.359 123.889 161.062 124.827 160.945 125.765C160.828 126.702 159.89 127.405 158.953 127.288Z" fill="#173D7B"/>
<path fill-rule="evenodd" clip-rule="evenodd" d="M157.077 136.548C156.14 136.313 155.554 135.376 155.788 134.438C156.022 133.5 156.96 132.914 157.898 133.149C158.835 133.383 159.421 134.321 159.187 135.258C158.953 136.196 158.015 136.782 157.077 136.548Z" fill="#173D7B"/>
<path fill-rule="evenodd" clip-rule="evenodd" d="M154.264 145.573C153.327 145.221 152.858 144.283 153.209 143.346C153.561 142.408 154.499 141.939 155.436 142.174C156.374 142.408 156.843 143.463 156.491 144.401C156.257 145.338 155.202 145.807 154.264 145.573Z" fill="#173D7B"/>
<path fill-rule="evenodd" clip-rule="evenodd" d="M150.865 154.363C149.928 154.012 149.576 152.957 149.928 152.019C150.279 151.199 151.334 150.73 152.272 151.081C153.209 151.433 153.678 152.488 153.209 153.426C152.741 154.363 151.686 154.715 150.865 154.363Z" fill="#173D7B"/>
<path fill-rule="evenodd" clip-rule="evenodd" d="M146.646 162.802C145.825 162.333 145.474 161.279 145.943 160.458C146.411 159.638 147.466 159.286 148.287 159.755C149.107 160.224 149.459 161.279 148.99 162.216C148.521 162.92 147.466 163.271 146.646 162.802Z" fill="#173D7B"/>
<path fill-rule="evenodd" clip-rule="evenodd" d="M141.606 170.772C140.785 170.186 140.551 169.132 141.137 168.311C141.606 167.491 142.778 167.256 143.598 167.842C144.419 168.311 144.653 169.483 144.067 170.304C143.598 171.124 142.426 171.359 141.606 170.772Z" fill="#173D7B"/>
<path fill-rule="evenodd" clip-rule="evenodd" d="M135.98 178.391C135.276 177.805 135.042 176.633 135.745 175.93C136.331 175.227 137.503 174.992 138.207 175.578C139.027 176.164 139.144 177.219 138.441 178.039C137.855 178.86 136.683 178.977 135.98 178.391Z" fill="#173D7B"/>
<path fill-rule="evenodd" clip-rule="evenodd" d="M129.651 185.424C128.947 184.72 128.947 183.665 129.533 182.962C130.119 182.259 131.291 182.259 131.995 182.845C132.698 183.548 132.698 184.603 132.112 185.306C131.526 186.127 130.354 186.127 129.651 185.424Z" fill="#173D7B"/>
<path fill-rule="evenodd" clip-rule="evenodd" d="M122.852 191.87C122.266 191.167 122.266 189.995 122.97 189.409C123.673 188.823 124.845 188.823 125.431 189.526C126.134 190.229 126.017 191.401 125.314 191.987C124.611 192.69 123.438 192.69 122.852 191.87Z" fill="#173D7B"/>
<path fill-rule="evenodd" clip-rule="evenodd" d="M115.468 197.73C114.882 196.91 115.117 195.855 115.82 195.269C116.523 194.683 117.695 194.8 118.281 195.621C118.867 196.441 118.75 197.496 117.93 198.082C117.109 198.785 115.937 198.551 115.468 197.73Z" fill="#173D7B"/>
<path fill-rule="evenodd" clip-rule="evenodd" d="M107.498 203.005C107.029 202.184 107.264 201.129 108.084 200.543C108.905 200.075 109.959 200.309 110.546 201.129C111.132 201.95 110.78 203.005 109.959 203.591C109.139 204.06 108.084 203.825 107.498 203.005Z" fill="#173D7B"/>
<path fill-rule="evenodd" clip-rule="evenodd" d="M99.1763 207.459C98.7075 206.638 99.0591 205.466 99.9968 205.115C100.817 204.646 101.872 204.997 102.341 205.935C102.81 206.755 102.458 207.81 101.52 208.279C100.7 208.748 99.6451 208.396 99.1763 207.459Z" fill="#173D7B"/>
<path fill-rule="evenodd" clip-rule="evenodd" d="M90.5029 211.209C90.1513 210.272 90.6202 209.334 91.4406 208.982C92.3783 208.631 93.3159 209.1 93.7848 209.92C94.1364 210.858 93.6676 211.795 92.8471 212.147C91.9094 212.616 90.8546 212.147 90.5029 211.209Z" fill="#173D7B"/>
<path fill-rule="evenodd" clip-rule="evenodd" d="M81.5951 214.14C81.3607 213.202 81.8295 212.264 82.7672 211.913C83.7049 211.678 84.6425 212.147 84.9941 213.085C85.3458 214.022 84.7597 215.077 83.8221 215.312C82.8844 215.663 81.8295 215.077 81.5951 214.14Z" fill="#173D7B"/>
<path fill-rule="evenodd" clip-rule="evenodd" d="M72.4528 216.367C72.2184 215.429 72.9217 214.491 73.8593 214.374C74.797 214.14 75.7347 214.726 75.9691 215.663C76.2035 216.601 75.6175 217.539 74.5626 217.773C73.5077 218.008 72.5701 217.304 72.4528 216.367Z" fill="#173D7B"/>
<path fill-rule="evenodd" clip-rule="evenodd" d="M63.0762 217.773C62.959 216.835 63.6623 215.898 64.5999 215.781C65.5376 215.663 66.4753 216.367 66.5925 217.304C66.7097 218.242 66.0064 219.18 65.0688 219.297C64.0139 219.414 63.1934 218.711 63.0762 217.773Z" fill="#173D7B"/>
<path fill-rule="evenodd" clip-rule="evenodd" d="M53.5823 218.242C53.5823 217.304 54.2856 216.484 55.3405 216.484C56.2781 216.484 57.0986 217.187 57.2158 218.242C57.2158 219.18 56.5125 220 55.4577 220C54.4028 220 53.5823 219.18 53.5823 218.242Z" fill="#173D7B"/>
<path fill-rule="evenodd" clip-rule="evenodd" d="M44.2056 218.007C44.3228 217.07 45.1433 216.366 46.081 216.366C47.0186 216.484 47.8391 217.187 47.7219 218.242C47.7219 219.179 46.9014 220 45.8466 219.883C44.7917 219.766 44.0884 218.945 44.2056 218.007Z" fill="#173D7B"/>
<path fill-rule="evenodd" clip-rule="evenodd" d="M34.829 216.953C34.9462 216.015 35.8838 215.312 36.8215 215.429C37.7592 215.546 38.4624 216.484 38.3452 217.421C38.228 218.359 37.2903 219.062 36.3527 218.945C35.2978 218.828 34.5945 217.89 34.829 216.953Z" fill="#173D7B"/>
<path fill-rule="evenodd" clip-rule="evenodd" d="M25.5695 215.077C25.8039 214.14 26.7416 213.553 27.6793 213.788C28.6169 214.022 29.203 214.96 28.9686 215.898C28.7341 216.835 27.7965 217.421 26.8588 217.187C25.9211 216.953 25.3351 216.015 25.5695 215.077Z" fill="#173D7B"/>
<path fill-rule="evenodd" clip-rule="evenodd" d="M16.4273 212.264C16.7789 211.327 17.7166 210.858 18.6543 211.209C19.5919 211.561 20.0608 212.499 19.8263 213.436C19.5919 214.374 18.537 214.843 17.5994 214.491C16.6617 214.257 16.1929 213.202 16.4273 212.264Z" fill="#173D7B"/>
<path fill-rule="evenodd" clip-rule="evenodd" d="M7.75381 208.865C8.10544 207.928 9.16031 207.576 10.098 207.928C10.9184 208.279 11.3873 209.334 11.0357 210.272C10.684 211.209 9.62915 211.678 8.69148 211.209C7.75381 210.741 7.28498 209.686 7.75381 208.865Z" fill="#173D7B"/>
<path fill-rule="evenodd" clip-rule="evenodd" d="M-0.685123 204.646C-0.216289 203.825 0.838586 203.474 1.65904 203.942C2.4795 204.411 2.83113 205.466 2.36229 206.287C1.89346 207.107 0.838586 207.459 -0.0990809 206.99C-0.91954 206.521 -1.15396 205.466 -0.685123 204.646Z" fill="#173D7B"/>
<path fill-rule="evenodd" clip-rule="evenodd" d="M4.82365 12.5413C5.29248 13.3618 4.94086 14.5339 4.00319 14.8855C3.18274 15.3543 2.12786 15.0027 1.65903 14.065C1.1902 13.2446 1.54182 12.1897 2.47948 11.7209C3.29994 11.3692 4.35481 11.7209 4.82365 12.5413Z" fill="#173D7B"/>
<path fill-rule="evenodd" clip-rule="evenodd" d="M13.497 8.79062C13.8486 9.72829 13.3798 10.666 12.5593 11.0176C11.6217 11.3692 10.684 10.9004 10.2152 10.0799C9.74634 9.25946 10.2152 8.20458 11.1528 7.85296C12.0905 7.50133 13.1454 7.85296 13.497 8.79062Z" fill="#173D7B"/>
<path fill-rule="evenodd" clip-rule="evenodd" d="M22.4049 5.86037C22.6393 6.79804 22.1705 7.7357 21.2328 8.08733C20.2951 8.32175 19.3575 7.85291 19.0059 6.91525C18.6542 5.97758 19.2403 4.9227 20.1779 4.68829C21.2328 4.33666 22.1705 4.9227 22.4049 5.86037Z" fill="#173D7B"/>
<path fill-rule="evenodd" clip-rule="evenodd" d="M31.6644 3.63343C31.8988 4.57109 31.1955 5.50876 30.2579 5.62597C29.3202 5.86039 28.3825 5.27434 28.1481 4.33668C27.9137 3.39901 28.4997 2.46134 29.5546 2.22693C30.4923 2.10972 31.4299 2.69576 31.6644 3.63343Z" fill="#173D7B"/>
<path fill-rule="evenodd" clip-rule="evenodd" d="M40.9238 2.22698C41.041 3.16465 40.3378 4.10231 39.4001 4.21952C38.4625 4.33673 37.5248 3.63348 37.4076 2.69581C37.2904 1.75815 37.9936 0.820479 38.9313 0.703271C39.9862 0.586063 40.9238 1.28931 40.9238 2.22698Z" fill="#173D7B"/>
<path fill-rule="evenodd" clip-rule="evenodd" d="M50.4177 1.75812C50.4177 2.69579 49.5972 3.51625 48.6595 3.51625C47.7219 3.51625 46.9014 2.813 46.7842 1.75812C46.7842 0.820458 47.4875 0 48.5423 0C49.5972 0 50.4177 0.820458 50.4177 1.75812Z" fill="#173D7B"/>
<path fill-rule="evenodd" clip-rule="evenodd" d="M59.7943 1.99255C59.6771 2.93021 58.8567 3.63346 57.919 3.63346C56.9814 3.51626 56.1609 2.81301 56.2781 1.75813C56.2781 0.820465 57.0986 7.03335e-06 58.1534 0.117215C59.2083 0.234424 59.9115 1.05488 59.7943 1.99255Z" fill="#173D7B"/>
<path fill-rule="evenodd" clip-rule="evenodd" d="M69.2882 3.04741C69.171 3.98507 68.2333 4.68832 67.2957 4.57111C66.358 4.45391 65.6548 3.51624 65.772 2.57857C65.8892 1.64091 66.8268 0.937656 67.7645 1.05486C68.7022 1.17207 69.4054 2.10974 69.2882 3.04741Z" fill="#173D7B"/>
<path fill-rule="evenodd" clip-rule="evenodd" d="M78.5477 5.03995C78.3132 5.97762 77.3756 6.56366 76.4379 6.32924C75.5002 6.09482 74.9142 5.15716 75.1486 4.21949C75.383 3.28182 76.3207 2.69578 77.2584 2.9302C78.196 3.04741 78.7821 4.10228 78.5477 5.03995Z" fill="#173D7B"/>
<path fill-rule="evenodd" clip-rule="evenodd" d="M87.5727 7.7357C87.2211 8.67337 86.2834 9.1422 85.3457 8.79058C84.4081 8.43895 83.9392 7.50129 84.1737 6.56362C84.4081 5.62595 85.4629 5.15712 86.4006 5.50874C87.3383 5.74316 87.8071 6.79804 87.5727 7.7357Z" fill="#173D7B"/>
<path fill-rule="evenodd" clip-rule="evenodd" d="M96.3633 11.252C96.0117 12.1897 94.9568 12.5413 94.0192 12.1897C93.1987 11.8381 92.7299 10.7832 93.0815 9.84553C93.4331 8.90786 94.488 8.43903 95.4257 8.90786C96.3633 9.25949 96.715 10.3144 96.3633 11.252Z" fill="#173D7B"/>
<path fill-rule="evenodd" clip-rule="evenodd" d="M104.802 15.4715C104.334 16.292 103.279 16.6436 102.458 16.1748C101.638 15.7059 101.286 14.6511 101.755 13.8306C102.224 13.0101 103.279 12.6585 104.216 13.1273C104.92 13.479 105.271 14.6511 104.802 15.4715Z" fill="#173D7B"/>
<path fill-rule="evenodd" clip-rule="evenodd" d="M112.772 20.3942C112.186 21.2147 111.132 21.4491 110.311 20.8631C109.491 20.3942 109.256 19.2221 109.842 18.4017C110.311 17.5812 111.483 17.3468 112.304 17.9328C113.124 18.5189 113.359 19.5738 112.772 20.3942Z" fill="#173D7B"/>
<path fill-rule="evenodd" clip-rule="evenodd" d="M120.391 26.0202C119.805 26.7235 118.633 26.9579 117.93 26.2546C117.226 25.6686 116.992 24.4965 117.578 23.7933C118.164 22.9728 119.219 22.8556 120.039 23.5588C120.86 24.1449 120.977 25.317 120.391 26.0202Z" fill="#173D7B"/>
<path fill-rule="evenodd" clip-rule="evenodd" d="M127.424 32.3495C126.72 33.0528 125.665 33.0528 124.962 32.4667C124.259 31.8807 124.259 30.7086 124.845 30.0053C125.548 29.3021 126.603 29.3021 127.306 29.8881C128.01 30.4742 128.127 31.6463 127.424 32.3495Z" fill="#173D7B"/>
<path fill-rule="evenodd" clip-rule="evenodd" d="M133.87 39.1476C133.167 39.7336 131.995 39.7336 131.409 39.0304C130.823 38.3271 130.823 37.155 131.526 36.569C132.229 35.8658 133.401 35.983 133.987 36.6862C134.69 37.3895 134.69 38.5615 133.87 39.1476Z" fill="#173D7B"/>
<path fill-rule="evenodd" clip-rule="evenodd" d="M139.73 46.6489C138.91 47.2349 137.855 47.0005 137.269 46.2973C136.683 45.594 136.8 44.4219 137.621 43.8359C138.441 43.2498 139.496 43.367 140.082 44.1875C140.785 44.8908 140.551 46.0628 139.73 46.6489Z" fill="#173D7B"/>
<path fill-rule="evenodd" clip-rule="evenodd" d="M145.005 54.5019C144.184 54.9707 143.129 54.7363 142.543 53.9158C142.075 53.0954 142.309 52.0405 143.129 51.4545C143.95 50.8684 145.005 51.22 145.591 52.0405C146.06 52.861 145.825 54.033 145.005 54.5019Z" fill="#173D7B"/>
<path fill-rule="evenodd" clip-rule="evenodd" d="M149.459 62.8236C148.638 63.2925 147.466 62.9408 147.114 62.0032C146.646 61.1827 146.997 60.1278 147.935 59.659C148.755 59.1902 149.81 59.5418 150.279 60.4795C150.748 61.2999 150.396 62.3548 149.459 62.8236Z" fill="#173D7B"/>
<path fill-rule="evenodd" clip-rule="evenodd" d="M153.209 71.4971C152.272 71.8487 151.334 71.3798 150.982 70.5594C150.631 69.6217 151.1 68.6841 151.92 68.2152C152.858 67.8636 153.795 68.3324 154.147 69.1529C154.616 70.0906 154.147 71.1454 153.209 71.4971Z" fill="#173D7B"/>
<path fill-rule="evenodd" clip-rule="evenodd" d="M156.14 80.4049C155.202 80.6393 154.264 80.1705 153.913 79.2328C153.678 78.2951 154.147 77.3575 155.085 77.0059C156.022 76.6542 157.077 77.2403 157.312 78.1779C157.663 79.2328 157.077 80.1705 156.14 80.4049Z" fill="#173D7B"/>
<path fill-rule="evenodd" clip-rule="evenodd" d="M158.367 89.6644C157.429 89.8988 156.491 89.1955 156.374 88.2579C156.14 87.3202 156.726 86.3825 157.663 86.1481C158.601 85.9137 159.539 86.4997 159.773 87.5546C160.007 88.4923 159.304 89.4299 158.367 89.6644Z" fill="#173D7B"/>
<path fill-rule="evenodd" clip-rule="evenodd" d="M159.773 98.9238C158.835 99.0411 157.898 98.3378 157.781 97.4001C157.663 96.4625 158.367 95.5248 159.304 95.4076C160.242 95.2904 161.18 95.9936 161.297 96.9313C161.414 97.9862 160.711 98.9238 159.773 98.9238Z" fill="#173D7B"/>
<path fill-rule="evenodd" clip-rule="evenodd" d="M160.242 108.418C159.304 108.418 158.484 107.714 158.484 106.66C158.484 105.722 159.187 104.901 160.242 104.784C161.18 104.784 162 105.487 162 106.542C162 107.597 161.18 108.418 160.242 108.418Z" fill="#173D7B"/>
<path fill-rule="evenodd" clip-rule="evenodd" d="M150.396 117.794C149.459 117.677 148.755 116.857 148.755 115.919C148.873 114.981 149.576 114.278 150.631 114.278C151.568 114.278 152.389 115.099 152.272 116.153C152.154 117.091 151.334 117.912 150.396 117.794Z" fill="#173D7B"/>
<path fill-rule="evenodd" clip-rule="evenodd" d="M149.224 127.171C148.287 127.054 147.583 126.116 147.818 125.178C147.935 124.241 148.873 123.538 149.81 123.655C150.748 123.772 151.451 124.71 151.334 125.647C151.1 126.585 150.162 127.288 149.224 127.171Z" fill="#173D7B"/>
<path fill-rule="evenodd" clip-rule="evenodd" d="M147.115 136.313C146.177 136.079 145.591 135.141 145.942 134.203C146.177 133.266 147.115 132.68 148.052 132.914C148.99 133.149 149.576 134.086 149.342 135.024C149.107 135.962 148.052 136.548 147.115 136.313Z" fill="#173D7B"/>
<path fill-rule="evenodd" clip-rule="evenodd" d="M144.184 145.221C143.247 144.869 142.895 143.932 143.129 142.994C143.481 142.056 144.419 141.588 145.356 141.939C146.294 142.291 146.763 143.229 146.411 144.166C146.177 145.104 145.122 145.573 144.184 145.221Z" fill="#173D7B"/>
<path fill-rule="evenodd" clip-rule="evenodd" d="M140.434 153.777C139.496 153.309 139.262 152.371 139.613 151.433C139.965 150.613 141.02 150.144 141.957 150.613C142.895 150.964 143.247 152.019 142.778 152.957C142.426 153.895 141.371 154.246 140.434 153.777Z" fill="#173D7B"/>
<path fill-rule="evenodd" clip-rule="evenodd" d="M135.863 161.982C135.042 161.513 134.808 160.458 135.276 159.521C135.745 158.7 136.8 158.466 137.621 158.934C138.441 159.403 138.793 160.458 138.207 161.396C137.855 162.333 136.683 162.568 135.863 161.982Z" fill="#173D7B"/>
<path fill-rule="evenodd" clip-rule="evenodd" d="M130.588 169.718C129.768 169.132 129.651 168.077 130.237 167.256C130.823 166.436 131.877 166.319 132.698 166.905C133.518 167.491 133.636 168.546 133.05 169.366C132.464 170.186 131.291 170.304 130.588 169.718Z" fill="#173D7B"/>
<path fill-rule="evenodd" clip-rule="evenodd" d="M124.493 176.985C123.79 176.281 123.79 175.226 124.376 174.523C124.962 173.82 126.134 173.703 126.838 174.406C127.541 174.992 127.658 176.164 126.955 176.867C126.369 177.571 125.197 177.571 124.493 176.985Z" fill="#173D7B"/>
<path fill-rule="evenodd" clip-rule="evenodd" d="M117.812 183.548C117.109 182.845 117.226 181.79 117.93 181.087C118.633 180.384 119.688 180.501 120.391 181.204C121.094 181.907 120.977 183.079 120.274 183.665C119.571 184.369 118.516 184.252 117.812 183.548Z" fill="#173D7B"/>
<path fill-rule="evenodd" clip-rule="evenodd" d="M110.546 189.526C109.96 188.705 110.194 187.651 110.897 187.064C111.6 186.478 112.773 186.596 113.359 187.416C113.945 188.119 113.827 189.291 113.007 189.877C112.304 190.463 111.132 190.229 110.546 189.526Z" fill="#173D7B"/>
<path fill-rule="evenodd" clip-rule="evenodd" d="M102.693 194.683C102.224 193.863 102.458 192.808 103.279 192.222C104.099 191.753 105.154 191.987 105.74 192.808C106.326 193.628 105.974 194.683 105.154 195.269C104.334 195.738 103.279 195.503 102.693 194.683Z" fill="#173D7B"/>
<path fill-rule="evenodd" clip-rule="evenodd" d="M94.488 199.137C94.0192 198.317 94.488 197.262 95.3085 196.793C96.1289 196.324 97.1838 196.676 97.6526 197.613C98.1215 198.434 97.7699 199.489 96.8322 199.957C95.8945 200.426 94.8396 200.075 94.488 199.137Z" fill="#173D7B"/>
<path fill-rule="evenodd" clip-rule="evenodd" d="M85.8146 202.77C85.463 201.833 85.9318 200.778 86.8695 200.543C87.8072 200.192 88.7448 200.661 89.0964 201.598C89.4481 202.536 88.9792 203.474 88.0416 203.942C87.1039 204.177 86.1662 203.708 85.8146 202.77Z" fill="#173D7B"/>
<path fill-rule="evenodd" clip-rule="evenodd" d="M76.7896 205.583C76.5552 204.646 77.1412 203.708 77.9617 203.356C78.8993 203.122 79.837 203.591 80.0714 204.529C80.3058 205.466 79.837 206.404 78.8993 206.755C78.0789 206.99 77.024 206.521 76.7896 205.583Z" fill="#173D7B"/>
<path fill-rule="evenodd" clip-rule="evenodd" d="M67.6473 207.459C67.5301 206.521 68.1161 205.583 69.0538 205.466C69.9915 205.349 70.9291 205.935 71.0463 206.873C71.2807 207.81 70.5775 208.748 69.6398 208.865C68.7022 209.1 67.7645 208.396 67.6473 207.459Z" fill="#173D7B"/>
<path fill-rule="evenodd" clip-rule="evenodd" d="M58.2707 208.514C58.2707 207.576 58.9739 206.755 59.9116 206.638C60.8492 206.521 61.6697 207.341 61.7869 208.279C61.9041 209.217 61.2009 210.037 60.146 210.154C59.2083 210.154 58.3879 209.451 58.2707 208.514Z" fill="#173D7B"/>
<path fill-rule="evenodd" clip-rule="evenodd" d="M48.894 208.631C48.894 207.693 49.7144 206.873 50.6521 206.873C51.5898 206.873 52.4102 207.693 52.4102 208.631C52.4102 209.568 51.5898 210.389 50.6521 210.389C49.5972 210.389 48.894 209.568 48.894 208.631Z" fill="#173D7B"/>
<path fill-rule="evenodd" clip-rule="evenodd" d="M39.5173 207.928C39.6345 206.99 40.455 206.287 41.5098 206.404C42.4475 206.521 43.1508 207.342 43.0335 208.279C42.9163 209.217 42.0959 210.037 41.041 209.92C40.1033 209.686 39.4001 208.865 39.5173 207.928Z" fill="#173D7B"/>
<path fill-rule="evenodd" clip-rule="evenodd" d="M30.2579 206.287C30.4923 205.349 31.4299 204.763 32.3676 204.997C33.3053 205.232 33.8913 206.052 33.7741 206.99C33.6569 207.928 32.7192 208.631 31.6644 208.396C30.7267 208.162 30.0235 207.224 30.2579 206.287Z" fill="#173D7B"/>
<path fill-rule="evenodd" clip-rule="evenodd" d="M21.2328 203.825C21.5845 202.888 22.5221 202.419 23.4598 202.653C24.3975 202.888 24.8663 203.825 24.6319 204.763C24.3975 205.701 23.3426 206.287 22.4049 205.935C21.4673 205.701 20.8812 204.763 21.2328 203.825Z" fill="#173D7B"/>
<path fill-rule="evenodd" clip-rule="evenodd" d="M12.4422 200.426C12.7938 199.489 13.8487 199.137 14.7864 199.489C15.7241 199.84 16.0757 200.895 15.7241 201.716C15.3724 202.653 14.3176 203.005 13.3799 202.653C12.4422 202.419 12.0906 201.364 12.4422 200.426Z" fill="#173D7B"/>
<path fill-rule="evenodd" clip-rule="evenodd" d="M4.0032 196.324C4.47204 195.503 5.52691 195.152 6.34737 195.621C7.16782 196.089 7.51945 197.144 7.05061 197.965C6.58178 198.785 5.52691 199.137 4.70645 198.668C3.88599 198.199 3.53437 197.144 4.0032 196.324Z" fill="#173D7B"/>
<path fill-rule="evenodd" clip-rule="evenodd" d="M1.30741 25.317C1.77624 26.1374 1.54183 27.1923 0.721372 27.7783C-0.0990839 28.2472 -1.15395 28.0128 -1.73999 27.1923C-2.32603 26.3718 -1.97441 25.317 -1.15395 24.7309C-0.333498 24.2621 0.83858 24.4965 1.30741 25.317Z" fill="#173D7B"/>
<path fill-rule="evenodd" clip-rule="evenodd" d="M9.51193 20.8631C9.98076 21.6836 9.51194 22.7384 8.69148 23.2073C7.87103 23.6761 6.81616 23.3245 6.34732 22.3868C5.87849 21.5664 6.23011 20.5115 7.16778 20.0427C8.10544 19.691 9.16031 20.0427 9.51193 20.8631Z" fill="#173D7B"/>
<path fill-rule="evenodd" clip-rule="evenodd" d="M18.1854 17.2296C18.537 18.1673 18.0682 19.2221 17.1305 19.4566C16.1928 19.8082 15.2552 19.3394 14.9035 18.4017C14.5519 17.464 15.0208 16.5264 15.9584 16.0575C16.8961 15.9403 17.8338 16.2919 18.1854 17.2296Z" fill="#173D7B"/>
<path fill-rule="evenodd" clip-rule="evenodd" d="M27.2105 14.4166C27.4449 15.3543 26.8588 16.2919 26.0384 16.6436C25.1007 16.878 24.1631 16.4091 23.9286 15.4715C23.6942 14.5338 24.1631 13.5961 25.1007 13.2445C26.0384 13.0101 26.976 13.4789 27.2105 14.4166Z" fill="#173D7B"/>
<path fill-rule="evenodd" clip-rule="evenodd" d="M36.3527 12.5413C36.4699 13.479 35.8838 14.4166 34.9462 14.5338C34.0085 14.651 33.0708 14.065 32.9536 13.1273C32.7192 12.1897 33.4225 11.252 34.3601 11.1348C35.2978 11.0176 36.2355 11.6036 36.3527 12.5413Z" fill="#173D7B"/>
<path fill-rule="evenodd" clip-rule="evenodd" d="M45.7294 11.4864C45.7294 12.424 45.0261 13.2445 44.0885 13.3617C43.1508 13.4789 42.3304 12.6585 42.2131 11.7208C42.0959 10.7831 42.7992 9.96267 43.8541 9.84546C44.7917 9.84546 45.6122 10.5487 45.7294 11.4864Z" fill="#173D7B"/>
<path fill-rule="evenodd" clip-rule="evenodd" d="M55.106 11.3692C55.106 12.3069 54.2856 13.1273 53.3479 13.1273C52.4102 13.1273 51.5898 12.3069 51.5898 11.3692C51.5898 10.4315 52.4102 9.61108 53.3479 9.61108C54.4028 9.61108 55.106 10.4315 55.106 11.3692Z" fill="#173D7B"/>
<path fill-rule="evenodd" clip-rule="evenodd" d="M64.4827 12.0725C64.3655 13.0101 63.545 13.7134 62.4902 13.5962C61.5525 13.479 60.8492 12.6585 60.9665 11.7208C61.0837 10.7832 61.9041 9.96271 62.959 10.0799C63.8967 10.3143 64.5999 11.1348 64.4827 12.0725Z" fill="#173D7B"/>
<path fill-rule="evenodd" clip-rule="evenodd" d="M73.7421 13.7134C73.5077 14.651 72.5701 15.2371 71.6324 15.0027C70.6947 14.7683 70.1087 13.9478 70.2259 13.0101C70.3431 12.0725 71.2808 11.3692 72.3356 11.6036C73.3905 11.838 73.9766 12.7757 73.7421 13.7134Z" fill="#173D7B"/>
<path fill-rule="evenodd" clip-rule="evenodd" d="M82.7672 16.1748C82.4156 17.1124 81.4779 17.5813 80.5403 17.3469C79.6026 17.1124 79.1338 16.1748 79.3682 15.2371C79.6026 14.2994 80.6575 13.7134 81.5951 14.065C82.5328 14.2994 83.1188 15.3543 82.7672 16.1748Z" fill="#173D7B"/>
<path fill-rule="evenodd" clip-rule="evenodd" d="M91.5578 19.5738C91.2062 20.5114 90.1513 20.8631 89.2136 20.5114C88.276 20.1598 87.9243 19.1049 88.276 18.2845C88.6276 17.3468 89.6825 16.9952 90.6201 17.3468C91.5578 17.5812 91.9094 18.7533 91.5578 19.5738Z" fill="#173D7B"/>
<path fill-rule="evenodd" clip-rule="evenodd" d="M99.9968 23.7933C99.528 24.6138 98.4731 24.9654 97.6527 24.4965C96.8322 24.0277 96.4806 22.9728 96.9494 22.1524C97.4182 21.3319 98.4731 20.9803 99.2936 21.4491C100.114 21.8008 100.466 22.9728 99.9968 23.7933Z" fill="#173D7B"/>
<path fill-rule="evenodd" clip-rule="evenodd" d="M107.967 28.7161C107.381 29.5365 106.326 29.6537 105.506 29.1849C104.685 28.7161 104.451 27.544 105.037 26.7235C105.506 25.9031 106.678 25.6686 107.498 26.2547C108.319 26.7235 108.553 27.8956 107.967 28.7161Z" fill="#173D7B"/>
<path fill-rule="evenodd" clip-rule="evenodd" d="M115.468 34.342C114.882 35.0453 113.71 35.1625 113.007 34.5764C112.304 33.9904 112.186 32.9355 112.773 32.1151C113.359 31.2946 114.531 31.1774 115.234 31.8807C115.937 32.4667 116.054 33.6388 115.468 34.342Z" fill="#173D7B"/>
<path fill-rule="evenodd" clip-rule="evenodd" d="M122.266 40.7885C121.563 41.4917 120.508 41.4917 119.805 40.7885C119.102 40.0852 119.102 39.0304 119.805 38.3271C120.508 37.6239 121.563 37.6239 122.266 38.3271C123.087 38.9132 122.97 40.0852 122.266 40.7885Z" fill="#173D7B"/>
<path fill-rule="evenodd" clip-rule="evenodd" d="M128.596 47.821C127.892 48.4071 126.72 48.2899 126.134 47.5866C125.548 46.8834 125.548 45.7113 126.369 45.1252C127.072 44.5392 128.244 44.5392 128.83 45.3597C129.416 46.0629 129.299 47.1178 128.596 47.821Z" fill="#173D7B"/>
<path fill-rule="evenodd" clip-rule="evenodd" d="M134.222 55.3223C133.401 55.9084 132.346 55.674 131.76 54.8535C131.174 54.033 131.409 52.9782 132.229 52.3921C133.05 51.8061 134.104 52.0405 134.69 52.861C135.159 53.6814 134.925 54.7363 134.222 55.3223Z" fill="#173D7B"/>
<path fill-rule="evenodd" clip-rule="evenodd" d="M139.027 63.4097C138.207 63.8785 137.152 63.5269 136.683 62.7065C136.214 61.886 136.449 60.8311 137.386 60.3623C138.207 59.8935 139.262 60.1279 139.848 61.0655C140.199 61.886 139.848 62.9409 139.027 63.4097Z" fill="#173D7B"/>
<path fill-rule="evenodd" clip-rule="evenodd" d="M143.012 71.8487C142.075 72.2003 141.137 71.8487 140.668 70.911C140.316 70.0906 140.668 69.0357 141.606 68.5669C142.426 68.2152 143.481 68.5669 143.95 69.5045C144.419 70.4422 143.95 71.4971 143.012 71.8487Z" fill="#173D7B"/>
<path fill-rule="evenodd" clip-rule="evenodd" d="M146.294 80.6393C145.356 80.8738 144.419 80.4049 144.067 79.4673C143.716 78.5296 144.302 77.5919 145.122 77.2403C146.06 76.8887 146.997 77.3575 147.349 78.4124C147.701 79.35 147.232 80.4049 146.294 80.6393Z" fill="#173D7B"/>
<path fill-rule="evenodd" clip-rule="evenodd" d="M148.638 89.7816C147.701 90.016 146.763 89.43 146.528 88.4923C146.294 87.5546 146.88 86.6169 147.818 86.3825C148.755 86.1481 149.693 86.7342 149.928 87.6718C150.162 88.6095 149.576 89.5472 148.638 89.7816Z" fill="#173D7B"/>
<path fill-rule="evenodd" clip-rule="evenodd" d="M150.045 99.041C149.107 99.1582 148.169 98.455 148.052 97.5173C147.935 96.5796 148.638 95.642 149.576 95.5248C150.514 95.4076 151.451 96.1108 151.568 97.0485C151.686 98.1034 151.1 98.9238 150.045 99.041Z" fill="#173D7B"/>
<path fill-rule="evenodd" clip-rule="evenodd" d="M150.631 108.418C149.693 108.418 148.873 107.714 148.873 106.66C148.873 105.722 149.576 104.901 150.631 104.784C151.568 104.784 152.389 105.487 152.389 106.542C152.389 107.597 151.686 108.418 150.631 108.418Z" fill="#173D7B"/>
<path fill-rule="evenodd" clip-rule="evenodd" d="M140.785 117.794C139.848 117.677 139.144 116.857 139.144 115.919C139.262 114.981 140.082 114.278 141.02 114.278C141.957 114.278 142.778 115.099 142.661 116.153C142.543 117.091 141.723 117.794 140.785 117.794Z" fill="#173D7B"/>
<path fill-rule="evenodd" clip-rule="evenodd" d="M139.496 126.937C138.558 126.702 137.855 125.882 138.09 124.944C138.207 124.006 139.144 123.42 140.082 123.538C141.02 123.655 141.723 124.592 141.489 125.53C141.371 126.585 140.434 127.171 139.496 126.937Z" fill="#173D7B"/>
<path fill-rule="evenodd" clip-rule="evenodd" d="M137.269 136.079C136.331 135.844 135.745 134.79 136.097 133.969C136.449 133.149 137.386 132.563 138.324 132.797C139.262 133.031 139.848 133.969 139.496 134.907C139.144 135.844 138.207 136.313 137.269 136.079Z" fill="#173D7B"/>
<path fill-rule="evenodd" clip-rule="evenodd" d="M134.104 144.752C133.167 144.401 132.815 143.346 133.167 142.525C133.518 141.705 134.573 141.236 135.394 141.588C136.331 141.939 136.8 142.994 136.331 143.815C135.98 144.752 134.925 145.221 134.104 144.752Z" fill="#173D7B"/>
<path fill-rule="evenodd" clip-rule="evenodd" d="M130.002 153.191C129.182 152.722 128.83 151.668 129.299 150.847C129.768 150.027 130.823 149.675 131.643 150.144C132.464 150.613 132.815 151.668 132.346 152.488C131.877 153.308 130.823 153.66 130.002 153.191Z" fill="#173D7B"/>
<path fill-rule="evenodd" clip-rule="evenodd" d="M124.962 161.044C124.142 160.458 124.025 159.403 124.493 158.583C124.962 157.762 126.134 157.528 126.955 158.114C127.775 158.583 128.01 159.755 127.424 160.575C126.955 161.396 125.783 161.63 124.962 161.044Z" fill="#173D7B"/>
<path fill-rule="evenodd" clip-rule="evenodd" d="M119.219 168.428C118.516 167.842 118.399 166.67 118.985 165.967C119.571 165.264 120.625 165.147 121.446 165.733C122.149 166.319 122.384 167.491 121.68 168.194C121.094 169.014 120.039 169.014 119.219 168.428Z" fill="#173D7B"/>
<path fill-rule="evenodd" clip-rule="evenodd" d="M112.773 175.109C112.069 174.406 112.186 173.234 112.773 172.648C113.476 172.062 114.531 172.062 115.234 172.648C115.937 173.351 115.937 174.406 115.234 175.109C114.531 175.93 113.476 175.812 112.773 175.109Z" fill="#173D7B"/>
<path fill-rule="evenodd" clip-rule="evenodd" d="M105.623 181.204C105.037 180.384 105.154 179.329 105.857 178.743C106.56 178.157 107.733 178.274 108.319 179.094C108.905 179.798 108.787 180.97 108.084 181.556C107.381 182.025 106.209 181.907 105.623 181.204Z" fill="#173D7B"/>
<path fill-rule="evenodd" clip-rule="evenodd" d="M97.887 186.361C97.4182 185.541 97.6526 184.486 98.4731 183.9C99.2935 183.431 100.348 183.665 100.934 184.486C101.521 185.306 101.286 186.361 100.348 186.947C99.528 187.416 98.4731 187.182 97.887 186.361Z" fill="#173D7B"/>
<path fill-rule="evenodd" clip-rule="evenodd" d="M89.6825 190.698C89.2137 189.76 89.6825 188.823 90.503 188.354C91.3234 187.885 92.3783 188.237 92.8471 189.174C93.316 189.995 92.9644 191.05 92.0267 191.518C91.2062 192.104 90.1514 191.636 89.6825 190.698Z" fill="#173D7B"/>
<path fill-rule="evenodd" clip-rule="evenodd" d="M81.0091 194.214C80.6575 193.276 81.1263 192.339 82.064 191.987C82.8844 191.636 83.9393 192.104 84.2909 193.042C84.6425 193.98 84.1737 194.917 83.236 195.386C82.4156 195.621 81.3607 195.152 81.0091 194.214Z" fill="#173D7B"/>
<path fill-rule="evenodd" clip-rule="evenodd" d="M72.1013 196.793C71.8668 195.855 72.4529 194.917 73.3905 194.683C74.3282 194.449 75.2659 195.035 75.5003 195.972C75.7347 196.91 75.1487 197.965 74.211 198.082C73.2733 198.316 72.3357 197.73 72.1013 196.793Z" fill="#173D7B"/>
<path fill-rule="evenodd" clip-rule="evenodd" d="M62.8418 198.434C62.7246 197.496 63.4278 196.558 64.3655 196.441C65.3031 196.324 66.1236 196.91 66.358 197.965C66.4752 198.903 65.8892 199.84 64.8343 199.957C63.8966 200.075 62.959 199.371 62.8418 198.434Z" fill="#173D7B"/>
<path fill-rule="evenodd" clip-rule="evenodd" d="M53.5823 199.02C53.5823 198.082 54.2856 197.262 55.2232 197.262C56.1609 197.262 56.9813 197.965 56.9813 198.903C56.9813 199.84 56.2781 200.661 55.3404 200.778C54.4028 200.778 53.5823 200.075 53.5823 199.02Z" fill="#173D7B"/>
<path fill-rule="evenodd" clip-rule="evenodd" d="M44.3229 198.785C44.4401 197.848 45.2605 197.144 46.1982 197.144C47.1359 197.262 47.8391 198.082 47.8391 199.02C47.8391 199.957 47.0186 200.778 45.9638 200.661C44.9089 200.543 44.2056 199.723 44.3229 198.785Z" fill="#173D7B"/>
<path fill-rule="evenodd" clip-rule="evenodd" d="M35.0634 197.496C35.2978 196.558 36.1183 195.855 37.0559 196.09C37.9936 196.207 38.5797 197.144 38.4624 198.082C38.3452 199.02 37.4076 199.723 36.4699 199.489C35.5322 199.371 34.829 198.434 35.0634 197.496Z" fill="#173D7B"/>
<path fill-rule="evenodd" clip-rule="evenodd" d="M26.0383 195.269C26.2727 194.331 27.3276 193.745 28.1481 194.097C29.0857 194.331 29.5546 195.386 29.3202 196.324C29.0857 197.262 28.1481 197.848 27.2104 197.496C26.2727 197.144 25.6867 196.207 26.0383 195.269Z" fill="#173D7B"/>
<path fill-rule="evenodd" clip-rule="evenodd" d="M17.2478 192.104C17.5994 191.167 18.6543 190.815 19.4747 191.167C20.2952 191.518 20.764 192.573 20.4124 193.394C20.0608 194.331 19.0059 194.8 18.1854 194.331C17.2478 193.98 16.7789 192.925 17.2478 192.104Z" fill="#173D7B"/>
<path fill-rule="evenodd" clip-rule="evenodd" d="M8.80875 188.002C9.27758 187.182 10.3325 186.83 11.1529 187.299C11.9734 187.768 12.325 188.823 11.8562 189.643C11.3873 190.464 10.3325 190.815 9.512 190.346C8.69154 189.877 8.33991 188.823 8.80875 188.002Z" fill="#173D7B"/>
<path fill-rule="evenodd" clip-rule="evenodd" d="M0.955791 182.962C1.54183 182.142 2.59671 182.025 3.41717 182.493C4.23763 182.962 4.47205 184.134 3.886 184.955C3.41717 185.775 2.24509 186.01 1.42463 185.424C0.604167 184.955 0.369748 183.783 0.955791 182.962Z" fill="#173D7B"/>
<path fill-rule="evenodd" clip-rule="evenodd" d="M6.11296 33.6388C6.58179 34.4592 6.34738 35.5141 5.52692 36.1001C4.70646 36.569 3.65158 36.3346 3.06554 35.5141C2.4795 34.6936 2.71391 33.6388 3.65158 33.0527C4.47204 32.5839 5.64413 32.8183 6.11296 33.6388Z" fill="#173D7B"/>
<path fill-rule="evenodd" clip-rule="evenodd" d="M14.3176 29.3021C14.7864 30.2398 14.3176 31.1775 13.4971 31.6463C12.6766 32.1151 11.6218 31.7635 11.1529 30.8258C10.6841 30.0054 11.0357 28.9505 11.9734 28.4817C12.7938 28.0128 13.9659 28.3645 14.3176 29.3021Z" fill="#173D7B"/>
<path fill-rule="evenodd" clip-rule="evenodd" d="M22.9909 25.7858C23.3425 26.7235 22.8737 27.6611 21.936 28.0128C21.1156 28.3644 20.0607 27.8956 19.7091 26.9579C19.3575 26.0202 19.8263 25.0826 20.764 24.6137C21.7016 24.3793 22.6393 24.8481 22.9909 25.7858Z" fill="#173D7B"/>
<path fill-rule="evenodd" clip-rule="evenodd" d="M31.8988 23.2073C32.1332 24.1449 31.5472 25.0826 30.6095 25.317C29.6718 25.5515 28.7342 24.9654 28.4997 24.0277C28.2653 23.0901 28.8514 22.0352 29.789 21.918C30.7267 21.6836 31.7816 22.2696 31.8988 23.2073Z" fill="#173D7B"/>
<path fill-rule="evenodd" clip-rule="evenodd" d="M41.1582 21.5663C41.2754 22.504 40.5722 23.4417 39.6345 23.5589C38.6969 23.6761 37.8764 23.09 37.642 22.0352C37.5248 21.0975 38.1108 20.1598 39.1657 20.0426C40.1034 19.9254 41.041 20.6287 41.1582 21.5663Z" fill="#173D7B"/>
<path fill-rule="evenodd" clip-rule="evenodd" d="M50.4177 20.9803C50.4177 21.918 49.7145 22.7384 48.7768 22.7384C47.8391 22.7384 47.0187 22.0352 47.0187 21.0975C47.0187 20.1598 47.7219 19.3394 48.6596 19.2222C49.5973 19.2222 50.4177 19.9254 50.4177 20.9803Z" fill="#173D7B"/>
<path fill-rule="evenodd" clip-rule="evenodd" d="M59.7943 21.2147C59.6771 22.1524 58.8567 22.8556 57.919 22.8556C56.9813 22.7384 56.2781 21.918 56.2781 20.9803C56.2781 20.0426 57.0985 19.2222 58.1534 19.3394C59.0911 19.4566 59.7943 20.277 59.7943 21.2147Z" fill="#173D7B"/>
<path fill-rule="evenodd" clip-rule="evenodd" d="M68.9366 22.504C68.7022 23.4417 67.8817 24.1449 66.9441 23.9105C66.0064 23.7933 65.4204 22.8556 65.5376 21.918C65.6548 20.9803 66.5925 20.2771 67.5301 20.5115C68.585 20.6287 69.171 21.5663 68.9366 22.504Z" fill="#173D7B"/>
<path fill-rule="evenodd" clip-rule="evenodd" d="M78.0789 24.7309C77.8445 25.6686 76.7896 26.2547 75.9691 25.903C75.0315 25.6686 74.5626 24.6137 74.797 23.6761C75.0315 22.7384 75.9691 22.1524 76.9068 22.504C77.8445 22.8556 78.3133 23.9105 78.0789 24.7309Z" fill="#173D7B"/>
<path fill-rule="evenodd" clip-rule="evenodd" d="M86.7523 28.0128C86.4007 28.9504 85.3458 29.3021 84.5253 28.9505C83.7049 28.5988 83.236 27.5439 83.5877 26.7235C83.9393 25.7858 84.9942 25.317 85.8146 25.7858C86.7523 26.0202 87.2211 27.0751 86.7523 28.0128Z" fill="#173D7B"/>
<path fill-rule="evenodd" clip-rule="evenodd" d="M95.1913 32.1151C94.7224 32.9356 93.6676 33.2872 92.8471 32.8183C92.0266 32.3495 91.675 31.2946 92.1439 30.4742C92.6127 29.6537 93.6676 29.3021 94.488 29.7709C95.3085 30.1226 95.6601 31.1774 95.1913 32.1151Z" fill="#173D7B"/>
<path fill-rule="evenodd" clip-rule="evenodd" d="M103.044 37.0378C102.458 37.8583 101.403 37.9755 100.583 37.5067C99.7624 37.0378 99.528 35.8657 100.114 35.0453C100.583 34.2248 101.755 33.9904 102.575 34.5765C103.396 35.1625 103.63 36.2174 103.044 37.0378Z" fill="#173D7B"/>
<path fill-rule="evenodd" clip-rule="evenodd" d="M110.428 42.781C109.842 43.4843 108.67 43.6015 107.967 43.0154C107.264 42.4294 107.147 41.3745 107.733 40.5541C108.319 39.8508 109.491 39.6164 110.194 40.3196C111.014 40.9057 111.014 42.0778 110.428 42.781Z" fill="#173D7B"/>
<path fill-rule="evenodd" clip-rule="evenodd" d="M117.109 49.2275C116.406 49.9307 115.234 49.8135 114.648 49.2275C114.062 48.5242 114.062 47.4693 114.648 46.7661C115.351 46.0628 116.406 46.0628 117.109 46.7661C117.93 47.4693 117.812 48.5242 117.109 49.2275Z" fill="#173D7B"/>
<path fill-rule="evenodd" clip-rule="evenodd" d="M123.204 56.3772C122.384 56.9633 121.329 56.8461 120.743 56.1428C120.157 55.4396 120.274 54.2675 121.094 53.6814C121.798 53.0954 122.97 53.2126 123.556 53.9159C124.025 54.7363 123.907 55.7912 123.204 56.3772Z" fill="#173D7B"/>
<path fill-rule="evenodd" clip-rule="evenodd" d="M128.361 64.113C127.541 64.5818 126.486 64.3474 125.9 63.5269C125.431 62.7065 125.665 61.6516 126.486 61.0655C127.306 60.4795 128.361 60.7139 128.947 61.6516C129.416 62.472 129.182 63.6441 128.361 64.113Z" fill="#173D7B"/>
<path fill-rule="evenodd" clip-rule="evenodd" d="M132.698 72.3176C131.76 72.7864 130.823 72.3176 130.354 71.4971C129.885 70.6766 130.237 69.6218 131.174 69.1529C131.995 68.6841 133.05 69.0357 133.518 69.9734C134.104 70.7938 133.636 71.9659 132.698 72.3176Z" fill="#173D7B"/>
<path fill-rule="evenodd" clip-rule="evenodd" d="M136.214 80.991C135.277 81.3426 134.339 80.8737 133.987 79.9361C133.636 79.1156 134.104 78.0607 135.042 77.7091C135.98 77.3575 136.917 77.8263 137.386 78.764C137.621 79.7017 137.152 80.6393 136.214 80.991Z" fill="#173D7B"/>
<path fill-rule="evenodd" clip-rule="evenodd" d="M138.793 89.8987C137.855 90.1332 136.917 89.5471 136.683 88.6095C136.449 87.6718 137.035 86.7341 137.972 86.4997C138.91 86.2653 139.965 86.8513 140.082 87.789C140.317 88.7267 139.73 89.7815 138.793 89.8987Z" fill="#173D7B"/>
<path fill-rule="evenodd" clip-rule="evenodd" d="M140.434 99.1582C139.496 99.2754 138.558 98.5722 138.441 97.6345C138.324 96.6969 138.91 95.8764 139.965 95.642C140.902 95.5248 141.84 96.1108 141.957 97.1657C142.075 98.1034 141.371 99.041 140.434 99.1582Z" fill="#173D7B"/>
<path fill-rule="evenodd" clip-rule="evenodd" d="M141.02 108.418C140.082 108.418 139.262 107.714 139.262 106.777C139.262 105.839 139.965 105.019 140.903 105.019C141.84 105.019 142.661 105.722 142.778 106.66C142.778 107.597 142.075 108.418 141.02 108.418Z" fill="#173D7B"/>
<path fill-rule="evenodd" clip-rule="evenodd" d="M131.174 117.794C130.237 117.677 129.533 116.857 129.533 115.919C129.65 114.981 130.471 114.278 131.409 114.278C132.346 114.278 133.05 115.216 133.05 116.153C132.932 117.208 132.112 117.912 131.174 117.794Z" fill="#173D7B"/>
<path fill-rule="evenodd" clip-rule="evenodd" d="M129.651 127.171C128.713 126.937 128.127 125.999 128.244 125.061C128.361 124.124 129.299 123.538 130.237 123.655C131.174 123.772 131.877 124.71 131.643 125.764C131.526 126.702 130.588 127.288 129.651 127.171Z" fill="#173D7B"/>
<path fill-rule="evenodd" clip-rule="evenodd" d="M127.072 136.196C126.134 135.844 125.665 134.907 126.017 133.969C126.369 133.031 127.306 132.563 128.244 132.797C129.182 133.031 129.768 134.086 129.416 135.024C128.947 135.962 128.01 136.548 127.072 136.196Z" fill="#173D7B"/>
<path fill-rule="evenodd" clip-rule="evenodd" d="M123.438 144.869C122.618 144.401 122.149 143.346 122.618 142.525C122.97 141.705 124.025 141.236 124.962 141.705C125.9 142.056 126.251 143.111 125.783 144.049C125.431 144.987 124.376 145.338 123.438 144.869Z" fill="#173D7B"/>
<path fill-rule="evenodd" clip-rule="evenodd" d="M118.867 153.074C118.047 152.488 117.812 151.433 118.281 150.613C118.75 149.792 119.805 149.558 120.625 150.027C121.446 150.495 121.797 151.668 121.211 152.488C120.743 153.308 119.688 153.66 118.867 153.074Z" fill="#173D7B"/>
<path fill-rule="evenodd" clip-rule="evenodd" d="M113.241 160.693C112.538 160.107 112.421 158.934 113.007 158.231C113.593 157.528 114.648 157.411 115.468 157.88C116.289 158.466 116.406 159.52 115.703 160.341C115.117 161.161 114.062 161.279 113.241 160.693Z" fill="#173D7B"/>
<path fill-rule="evenodd" clip-rule="evenodd" d="M106.795 167.608C106.092 166.905 106.092 165.85 106.795 165.147C107.498 164.443 108.553 164.443 109.256 165.147C109.959 165.85 109.959 166.905 109.256 167.608C108.67 168.311 107.498 168.311 106.795 167.608Z" fill="#173D7B"/>
<path fill-rule="evenodd" clip-rule="evenodd" d="M99.6451 173.703C99.0591 172.882 99.1763 171.827 99.9968 171.241C100.7 170.655 101.872 170.772 102.458 171.593C103.044 172.296 102.927 173.468 102.107 174.054C101.286 174.523 100.231 174.406 99.6451 173.703Z" fill="#173D7B"/>
<path fill-rule="evenodd" clip-rule="evenodd" d="M91.7922 178.86C91.3234 178.039 91.5578 176.985 92.3782 176.516C93.1987 176.047 94.2536 176.281 94.7224 177.102C95.1912 177.922 94.9568 178.977 94.1363 179.563C93.3159 179.915 92.261 179.68 91.7922 178.86Z" fill="#173D7B"/>
<path fill-rule="evenodd" clip-rule="evenodd" d="M83.3532 183.079C83.0016 182.142 83.3532 181.087 84.1736 180.735C84.9941 180.384 86.049 180.735 86.5178 181.556C86.9866 182.493 86.5178 183.431 85.6973 183.9C84.7597 184.369 83.7048 184.017 83.3532 183.079Z" fill="#173D7B"/>
<path fill-rule="evenodd" clip-rule="evenodd" d="M74.5626 186.244C74.3282 185.306 74.797 184.369 75.7347 184.017C76.6723 183.665 77.61 184.251 77.9616 185.072C78.3132 186.01 77.7272 186.947 76.7895 187.299C75.7347 187.768 74.797 187.182 74.5626 186.244Z" fill="#173D7B"/>
<path fill-rule="evenodd" clip-rule="evenodd" d="M65.3031 188.354C65.1859 187.416 65.7719 186.478 66.7096 186.361C67.6473 186.244 68.5849 186.83 68.8194 187.768C69.0538 188.705 68.3505 189.643 67.4129 189.877C66.358 189.995 65.5375 189.291 65.3031 188.354Z" fill="#173D7B"/>
<path fill-rule="evenodd" clip-rule="evenodd" d="M55.9265 189.409C55.9265 188.471 56.6297 187.651 57.5674 187.533C58.505 187.416 59.3255 188.237 59.4427 189.174C59.5599 190.112 58.8567 190.932 57.8018 191.05C56.8641 191.167 56.0437 190.346 55.9265 189.409Z" fill="#173D7B"/>
<path fill-rule="evenodd" clip-rule="evenodd" d="M46.5498 189.291C46.667 188.354 47.4875 187.65 48.4251 187.65C49.3628 187.65 50.1833 188.471 50.0661 189.409C50.0661 190.346 49.2456 191.167 48.1907 191.167C47.2531 191.167 46.4326 190.229 46.5498 189.291Z" fill="#173D7B"/>
<path fill-rule="evenodd" clip-rule="evenodd" d="M37.1731 188.119C37.4075 187.182 38.228 186.478 39.1657 186.713C40.1033 186.947 40.8066 187.768 40.5722 188.705C40.455 189.643 39.5173 190.346 38.5796 190.112C37.642 189.995 37.0559 189.057 37.1731 188.119Z" fill="#173D7B"/>
<path fill-rule="evenodd" clip-rule="evenodd" d="M28.0308 185.892C28.2652 184.955 29.3201 184.486 30.2578 184.72C31.1954 184.955 31.6643 186.01 31.4298 186.947C31.1954 187.885 30.2578 188.471 29.2029 188.119C28.2652 187.768 27.7964 186.83 28.0308 185.892Z" fill="#173D7B"/>
<path fill-rule="evenodd" clip-rule="evenodd" d="M19.2403 182.493C19.5919 181.556 20.6468 181.204 21.5844 181.556C22.4049 181.907 22.8737 182.962 22.5221 183.783C22.1705 184.72 21.1156 185.072 20.1779 184.72C19.2403 184.369 18.8886 183.314 19.2403 182.493Z" fill="#173D7B"/>
<path fill-rule="evenodd" clip-rule="evenodd" d="M10.9184 178.039C11.3873 177.219 12.5594 176.867 13.3798 177.336C14.2003 177.805 14.5519 178.86 14.0831 179.798C13.6142 180.618 12.5594 180.97 11.6217 180.384C10.684 180.032 10.4496 178.86 10.9184 178.039Z" fill="#173D7B"/>
<path fill-rule="evenodd" clip-rule="evenodd" d="M3.18268 172.765C3.76872 171.945 4.8236 171.827 5.64405 172.413C6.46451 173 6.58172 174.054 5.99568 174.875C5.40964 175.695 4.35476 175.812 3.53431 175.226C2.71385 174.64 2.59664 173.468 3.18268 172.765Z" fill="#173D7B"/>
<path fill-rule="evenodd" clip-rule="evenodd" d="M0.721351 49.3447C1.30739 50.0479 1.30739 51.22 0.604144 51.8061C-0.0991066 52.3921 -1.27119 52.3921 -1.85723 51.6888C-2.56048 50.9856 -2.44328 49.8135 -1.74002 49.2275C-1.03677 48.5242 0.0181 48.5242 0.721351 49.3447Z" fill="#173D7B"/>
<path fill-rule="evenodd" clip-rule="evenodd" d="M8.22266 43.6015C8.8087 44.4219 8.57428 45.4768 7.75383 46.0629C6.93337 46.6489 5.8785 46.4145 5.29246 45.594C4.70642 44.7736 4.94084 43.7187 5.76129 43.1326C6.58175 42.6638 7.75383 42.8982 8.22266 43.6015Z" fill="#173D7B"/>
<path fill-rule="evenodd" clip-rule="evenodd" d="M16.4272 38.9132C16.896 39.7336 16.5444 40.7885 15.724 41.2573C14.9035 41.7262 13.8486 41.3746 13.3798 40.5541C12.911 39.7336 13.2626 38.5616 14.083 38.2099C14.9035 37.7411 15.9584 38.0927 16.4272 38.9132Z" fill="#173D7B"/>
<path fill-rule="evenodd" clip-rule="evenodd" d="M24.9834 35.1625C25.335 36.1002 24.8662 37.0379 23.9285 37.3895C22.9909 37.7411 22.0532 37.2723 21.7016 36.4518C21.35 35.5141 21.8188 34.5765 22.7565 34.1076C23.6941 33.8732 24.749 34.3421 24.9834 35.1625Z" fill="#173D7B"/>
<path fill-rule="evenodd" clip-rule="evenodd" d="M34.1257 32.5839C34.3601 33.5216 33.7741 34.4592 32.8364 34.6936C31.8988 34.9281 30.9611 34.342 30.7267 33.4044C30.4923 32.4667 31.0783 31.529 32.016 31.1774C32.9536 31.0602 33.8913 31.6462 34.1257 32.5839Z" fill="#173D7B"/>
<path fill-rule="evenodd" clip-rule="evenodd" d="M43.3851 30.943C43.5024 31.8807 42.7991 32.8183 41.8614 32.9355C40.9238 33.0528 39.9861 32.3495 39.8689 31.4118C39.7517 30.4742 40.4549 29.5365 41.3926 29.4193C42.3303 29.3021 43.2679 30.0053 43.3851 30.943Z" fill="#173D7B"/>
<path fill-rule="evenodd" clip-rule="evenodd" d="M52.7618 30.4742C52.7618 31.4118 51.9414 32.2323 51.0037 32.2323C50.066 32.2323 49.2456 31.529 49.2456 30.4742C49.2456 29.5365 49.9488 28.716 51.0037 28.716C51.9414 28.716 52.7618 29.5365 52.7618 30.4742Z" fill="#173D7B"/>
<path fill-rule="evenodd" clip-rule="evenodd" d="M62.1385 31.1774C62.0213 32.115 61.2008 32.8183 60.1459 32.7011C59.2083 32.5839 58.505 31.7634 58.6222 30.8258C58.7394 29.8881 59.5599 29.0676 60.6148 29.1848C61.5524 29.3021 62.2557 30.2397 62.1385 31.1774Z" fill="#173D7B"/>
<path fill-rule="evenodd" clip-rule="evenodd" d="M71.3979 32.9355C71.1635 33.8732 70.2259 34.4592 69.2882 34.2248C68.3505 33.9904 67.7645 33.0527 67.9989 32.1151C68.2333 31.1774 69.171 30.5914 70.1086 30.8258C71.0463 31.0602 71.6324 31.9979 71.3979 32.9355Z" fill="#173D7B"/>
<path fill-rule="evenodd" clip-rule="evenodd" d="M80.423 35.7485C80.0713 36.6862 79.1337 37.0378 78.196 36.8034C77.2583 36.4518 76.7895 35.5141 77.1411 34.5764C77.4928 33.6388 78.4304 33.1699 79.3681 33.5216C80.3057 33.756 80.7746 34.8109 80.423 35.7485Z" fill="#173D7B"/>
<path fill-rule="evenodd" clip-rule="evenodd" d="M88.9792 39.6164C88.5103 40.4368 87.4555 40.7885 86.635 40.4368C85.8145 39.968 85.4629 38.9131 85.8145 38.0927C86.1662 37.155 87.3383 36.8034 88.1587 37.2722C89.0964 37.7411 89.448 38.7959 88.9792 39.6164Z" fill="#173D7B"/>
<path fill-rule="evenodd" clip-rule="evenodd" d="M97.0666 44.5392C96.4805 45.3596 95.4256 45.4768 94.6052 45.008C93.7847 44.5392 93.5503 43.3671 94.1364 42.5466C94.6052 41.7262 95.7773 41.4918 96.5977 42.0778C97.4182 42.5466 97.6526 43.7187 97.0666 44.5392Z" fill="#173D7B"/>
<path fill-rule="evenodd" clip-rule="evenodd" d="M104.451 50.2823C103.865 50.9856 102.693 51.1028 101.989 50.5167C101.286 49.9307 101.169 48.8758 101.755 48.0554C102.341 47.3521 103.513 47.1177 104.216 47.821C105.037 48.407 105.154 49.5791 104.451 50.2823Z" fill="#173D7B"/>
<path fill-rule="evenodd" clip-rule="evenodd" d="M111.132 56.9632C110.428 57.5493 109.256 57.5493 108.67 56.846C107.967 56.1428 108.084 55.0879 108.787 54.3847C109.491 53.6814 110.546 53.6814 111.249 54.5019C111.952 55.0879 111.952 56.26 111.132 56.9632Z" fill="#173D7B"/>
<path fill-rule="evenodd" clip-rule="evenodd" d="M116.992 64.3473C116.172 64.9334 115.117 64.699 114.531 63.9957C113.945 63.1752 114.062 62.1204 114.882 61.5343C115.586 60.9483 116.758 61.0655 117.344 61.886C118.047 62.5892 117.812 63.7613 116.992 64.3473Z" fill="#173D7B"/>
<path fill-rule="evenodd" clip-rule="evenodd" d="M122.032 72.3175C121.211 72.7864 120.157 72.4347 119.688 71.6143C119.219 70.7938 119.453 69.739 120.391 69.2701C121.211 68.8013 122.266 69.0357 122.852 69.9734C123.204 70.7938 122.852 71.8487 122.032 72.3175Z" fill="#173D7B"/>
<path fill-rule="evenodd" clip-rule="evenodd" d="M126.017 80.8738C125.079 81.2254 124.142 80.7565 123.79 79.9361C123.438 79.1156 123.79 78.0607 124.728 77.5919C125.665 77.2403 126.72 77.5919 127.072 78.5296C127.306 79.4673 126.837 80.5221 126.017 80.8738Z" fill="#173D7B"/>
<path fill-rule="evenodd" clip-rule="evenodd" d="M128.947 89.7816C128.01 90.016 127.072 89.4299 126.72 88.6095C126.486 87.6718 126.955 86.7341 127.892 86.3825C128.83 86.1481 129.768 86.6169 130.119 87.5546C130.354 88.6095 129.885 89.5472 128.947 89.7816Z" fill="#173D7B"/>
<path fill-rule="evenodd" clip-rule="evenodd" d="M130.705 99.041C129.768 99.1582 128.947 98.4549 128.713 97.5173C128.596 96.5796 129.182 95.642 130.119 95.5247C131.057 95.2903 131.995 95.9936 132.112 96.9312C132.463 97.9861 131.643 98.9238 130.705 99.041Z" fill="#173D7B"/>
<path fill-rule="evenodd" clip-rule="evenodd" d="M131.526 108.418C130.588 108.418 129.768 107.714 129.768 106.777C129.768 105.839 130.471 105.019 131.409 104.901C132.346 104.784 133.284 105.605 133.284 106.542C133.167 107.597 132.463 108.418 131.526 108.418Z" fill="#173D7B"/>
<path fill-rule="evenodd" clip-rule="evenodd" d="M121.446 117.794C120.508 117.677 119.805 116.857 119.805 115.919C119.922 114.981 120.743 114.278 121.68 114.278C122.618 114.278 123.321 115.216 123.321 116.154C123.321 117.208 122.501 117.912 121.446 117.794Z" fill="#173D7B"/>
<path fill-rule="evenodd" clip-rule="evenodd" d="M119.805 126.937C118.867 126.702 118.281 125.765 118.516 124.827C118.75 123.889 119.688 123.303 120.625 123.538C121.563 123.772 122.266 124.71 122.032 125.647C121.68 126.585 120.743 127.171 119.805 126.937Z" fill="#173D7B"/>
<path fill-rule="evenodd" clip-rule="evenodd" d="M116.992 135.844C116.054 135.493 115.586 134.438 115.937 133.617C116.289 132.68 117.226 132.211 118.164 132.563C119.102 132.914 119.571 133.852 119.219 134.79C118.867 135.727 117.812 136.196 116.992 135.844Z" fill="#173D7B"/>
<path fill-rule="evenodd" clip-rule="evenodd" d="M112.89 144.283C112.069 143.815 111.718 142.76 112.186 141.939C112.655 141.119 113.71 140.767 114.531 141.236C115.351 141.705 115.703 142.76 115.234 143.58C114.882 144.401 113.827 144.752 112.89 144.283Z" fill="#173D7B"/>
<path fill-rule="evenodd" clip-rule="evenodd" d="M107.85 152.019C107.029 151.433 106.912 150.378 107.498 149.558C108.084 148.737 109.139 148.62 109.96 149.206C110.78 149.792 110.897 150.847 110.428 151.668C109.725 152.488 108.67 152.722 107.85 152.019Z" fill="#173D7B"/>
<path fill-rule="evenodd" clip-rule="evenodd" d="M101.755 159.169C101.052 158.466 101.052 157.411 101.638 156.707C102.341 156.004 103.396 156.004 104.099 156.59C104.802 157.294 104.92 158.348 104.216 159.052C103.513 159.755 102.458 159.872 101.755 159.169Z" fill="#173D7B"/>
<path fill-rule="evenodd" clip-rule="evenodd" d="M94.7225 165.381C94.1364 164.56 94.2536 163.506 94.9569 162.92C95.6601 162.334 96.715 162.451 97.4183 163.154C98.0043 163.857 98.0043 165.029 97.1838 165.615C96.4806 166.201 95.3085 166.084 94.7225 165.381Z" fill="#173D7B"/>
<path fill-rule="evenodd" clip-rule="evenodd" d="M86.9868 170.538C86.5179 169.718 86.7523 168.663 87.5728 168.194C88.3932 167.725 89.4481 167.96 89.9169 168.78C90.503 169.6 90.1514 170.655 89.3309 171.241C88.5104 171.71 87.4556 171.359 86.9868 170.538Z" fill="#173D7B"/>
<path fill-rule="evenodd" clip-rule="evenodd" d="M78.6649 174.64C78.3133 173.703 78.6649 172.765 79.6026 172.296C80.4231 171.945 81.4779 172.296 81.9468 173.234C82.4156 174.054 81.9468 175.109 81.0091 175.578C80.0714 176.047 79.0166 175.578 78.6649 174.64Z" fill="#173D7B"/>
<path fill-rule="evenodd" clip-rule="evenodd" d="M69.7571 177.688C69.5227 176.75 70.1087 175.812 70.9292 175.461C71.8669 175.226 72.8045 175.695 73.0389 176.633C73.3906 177.571 72.8045 178.508 71.8669 178.86C70.9292 179.094 69.9915 178.625 69.7571 177.688Z" fill="#173D7B"/>
<path fill-rule="evenodd" clip-rule="evenodd" d="M60.6149 179.329C60.4977 178.391 61.2009 177.453 62.1386 177.336C63.0762 177.219 63.8967 177.805 64.1311 178.743C64.2483 179.68 63.6623 180.618 62.6074 180.735C61.5525 180.97 60.7321 180.384 60.6149 179.329Z" fill="#173D7B"/>
<path fill-rule="evenodd" clip-rule="evenodd" d="M51.2382 179.915C51.2382 178.977 52.0586 178.157 52.9963 178.157C53.934 178.157 54.7544 178.86 54.7544 179.915C54.7544 180.852 54.0512 181.673 52.9963 181.673C52.0586 181.673 51.2382 180.852 51.2382 179.915Z" fill="#173D7B"/>
<path fill-rule="evenodd" clip-rule="evenodd" d="M41.9787 179.212C42.0959 178.274 43.0336 177.571 43.9712 177.688C44.9089 177.805 45.6121 178.625 45.4949 179.68C45.3777 180.618 44.5573 181.321 43.5024 181.204C42.4475 180.97 41.8615 180.149 41.9787 179.212Z" fill="#173D7B"/>
<path fill-rule="evenodd" clip-rule="evenodd" d="M32.8364 177.219C33.0709 176.281 34.0085 175.695 34.9462 176.047C35.8839 176.281 36.4699 177.219 36.2355 178.157C36.0011 179.094 35.0634 179.68 34.1257 179.446C33.0709 179.094 32.602 178.157 32.8364 177.219Z" fill="#173D7B"/>
<path fill-rule="evenodd" clip-rule="evenodd" d="M24.0459 174.054C24.3975 173.117 25.4524 172.765 26.2728 173.117C27.0933 173.468 27.5621 174.523 27.2105 175.344C26.8589 176.281 25.804 176.75 24.8663 176.281C24.0459 176.047 23.6942 174.992 24.0459 174.054Z" fill="#173D7B"/>
<path fill-rule="evenodd" clip-rule="evenodd" d="M15.7241 169.835C16.1929 169.014 17.2478 168.663 18.0682 169.132C18.8887 169.6 19.1231 170.655 18.6543 171.476C18.1854 172.296 17.1306 172.648 16.3101 172.179C15.4896 171.71 15.2552 170.655 15.7241 169.835Z" fill="#173D7B"/>
<path fill-rule="evenodd" clip-rule="evenodd" d="M8.10553 164.443C8.69158 163.74 9.86366 163.506 10.5669 164.092C11.2702 164.678 11.5046 165.733 10.9185 166.553C10.3325 167.374 9.27762 167.491 8.45716 166.905C7.6367 166.201 7.51949 165.147 8.10553 164.443Z" fill="#173D7B"/>
<path fill-rule="evenodd" clip-rule="evenodd" d="M1.30746 157.997C2.01071 157.293 3.06559 157.293 3.76884 157.997C4.47208 158.7 4.47208 159.755 3.76884 160.458C3.06559 161.161 2.01071 161.161 1.30746 160.458C0.487005 159.872 0.604213 158.7 1.30746 157.997Z" fill="#173D7B"/>
<path fill-rule="evenodd" clip-rule="evenodd" d="M5.64415 57.6665C6.3474 58.3698 6.23019 59.4247 5.52694 60.1279C4.8237 60.8312 3.76882 60.714 3.06557 60.0107C2.36232 59.3075 2.36233 58.2526 3.18278 57.5493C3.88603 56.8461 5.05811 56.9633 5.64415 57.6665Z" fill="#173D7B"/>
<path fill-rule="evenodd" clip-rule="evenodd" d="M13.0282 51.9233C13.6143 52.7438 13.3799 53.7986 12.5594 54.3847C11.7389 54.9707 10.6841 54.7363 10.098 53.9159C9.51198 53.0954 9.7464 52.0405 10.4496 51.4545C11.3873 50.9857 12.5594 51.1029 13.0282 51.9233Z" fill="#173D7B"/>
<path fill-rule="evenodd" clip-rule="evenodd" d="M21.1156 47.235C21.5844 48.0554 21.2328 49.1103 20.4124 49.5791C19.5919 50.048 18.537 49.6963 18.0682 48.8759C17.5994 48.0554 17.951 46.8833 18.7715 46.5317C19.7091 46.0629 20.764 46.4145 21.1156 47.235Z" fill="#173D7B"/>
<path fill-rule="evenodd" clip-rule="evenodd" d="M29.7891 43.7187C30.1407 44.6564 29.6719 45.594 28.7342 45.9457C27.9138 46.2973 26.8589 45.8284 26.5072 44.8908C26.1556 43.9531 26.6245 42.8982 27.5621 42.5466C28.4998 42.3122 29.4375 42.781 29.7891 43.7187Z" fill="#173D7B"/>
<path fill-rule="evenodd" clip-rule="evenodd" d="M38.8141 41.3745C39.0485 42.3122 38.3453 43.2499 37.5248 43.4843C36.5871 43.7187 35.6495 43.1327 35.4151 42.195C35.1806 41.2573 35.7667 40.3197 36.7044 40.0852C37.7592 39.7336 38.6969 40.4369 38.8141 41.3745Z" fill="#173D7B"/>
<path fill-rule="evenodd" clip-rule="evenodd" d="M48.0735 40.2024C48.0735 41.1401 47.3703 41.9606 46.4326 42.0778C45.495 42.195 44.6745 41.3745 44.5573 40.4369C44.4401 39.4992 45.1433 38.5615 46.1982 38.5615C47.2531 38.5615 48.0735 39.2648 48.0735 40.2024Z" fill="#173D7B"/>
<path fill-rule="evenodd" clip-rule="evenodd" d="M57.4502 40.3197C57.333 41.2573 56.5126 41.9606 55.5749 41.9606C54.6372 41.9606 53.934 41.1401 53.934 40.2025C53.934 39.2648 54.7544 38.4443 55.8093 38.4443C56.747 38.5615 57.4502 39.382 57.4502 40.3197Z" fill="#173D7B"/>
<path fill-rule="evenodd" clip-rule="evenodd" d="M66.7096 41.609C66.4752 42.5466 65.5376 43.1327 64.7171 43.0155C63.7794 42.8982 63.1934 41.9606 63.3106 41.0229C63.4278 40.0853 64.3655 39.382 65.3031 39.6164C66.2408 39.7336 66.8269 40.6713 66.7096 41.609Z" fill="#173D7B"/>
<path fill-rule="evenodd" clip-rule="evenodd" d="M75.6175 44.1875C75.2659 45.1252 74.3282 45.594 73.3906 45.2424C72.4529 44.8908 71.9841 43.9531 72.3357 43.0154C72.5701 42.0778 73.625 41.609 74.5626 41.8434C75.5003 42.3122 75.9691 43.2499 75.6175 44.1875Z" fill="#173D7B"/>
<path fill-rule="evenodd" clip-rule="evenodd" d="M84.1737 47.9382C83.7049 48.7587 82.65 49.1103 81.8296 48.7586C81.0091 48.2898 80.6575 47.3521 81.0091 46.4145C81.3607 45.594 82.5328 45.1252 83.3533 45.594C84.2909 46.0629 84.6426 47.1177 84.1737 47.9382Z" fill="#173D7B"/>
<path fill-rule="evenodd" clip-rule="evenodd" d="M92.1439 52.861C91.5578 53.6814 90.5029 53.7986 89.6825 53.3298C88.862 52.861 88.6276 51.6889 89.2136 50.8684C89.6825 50.048 90.8545 49.8136 91.675 50.3996C92.4955 50.8684 92.7299 52.0405 92.1439 52.861Z" fill="#173D7B"/>
<path fill-rule="evenodd" clip-rule="evenodd" d="M99.4108 58.7214C98.7075 59.4246 97.6526 59.4246 96.9494 58.8386C96.2461 58.2525 96.1289 57.0804 96.8322 56.3772C97.4182 55.6739 98.5903 55.5567 99.2936 56.26C100.114 56.846 100.114 58.0181 99.4108 58.7214Z" fill="#173D7B"/>
<path fill-rule="evenodd" clip-rule="evenodd" d="M105.857 65.4023C105.154 65.9883 103.982 65.9883 103.396 65.285C102.81 64.5818 102.81 63.4097 103.513 62.8237C104.216 62.1204 105.388 62.2376 105.974 62.9409C106.678 63.7613 106.678 64.8162 105.857 65.4023Z" fill="#173D7B"/>
<path fill-rule="evenodd" clip-rule="evenodd" d="M111.366 73.0208C110.546 73.4897 109.491 73.2552 108.905 72.552C108.436 71.7315 108.553 70.6767 109.374 70.0906C110.194 69.5046 111.249 69.739 111.835 70.5595C112.421 71.3799 112.186 72.552 111.366 73.0208Z" fill="#173D7B"/>
<path fill-rule="evenodd" clip-rule="evenodd" d="M115.703 81.2254C114.765 81.577 113.827 81.2254 113.359 80.4049C112.89 79.5844 113.241 78.5296 114.179 78.0607C114.999 77.5919 116.054 77.9435 116.523 78.8812C116.992 79.8189 116.64 80.8737 115.703 81.2254Z" fill="#173D7B"/>
<path fill-rule="evenodd" clip-rule="evenodd" d="M118.985 90.016C118.047 90.2504 117.109 89.7816 116.758 88.8439C116.406 87.9063 116.992 86.9686 117.813 86.617C118.75 86.2653 119.688 86.7342 120.039 87.789C120.508 88.7267 119.922 89.7816 118.985 90.016Z" fill="#173D7B"/>
<path fill-rule="evenodd" clip-rule="evenodd" d="M121.094 99.1582C120.157 99.2755 119.219 98.6894 119.102 97.7517C118.985 96.8141 119.571 95.8764 120.508 95.7592C121.446 95.5248 122.384 96.228 122.501 97.1657C122.618 98.1034 122.032 98.9238 121.094 99.1582Z" fill="#173D7B"/>
<path fill-rule="evenodd" clip-rule="evenodd" d="M121.915 108.418C120.977 108.418 120.157 107.714 120.157 106.777C120.157 105.839 120.86 105.019 121.798 104.901C122.735 104.784 123.673 105.605 123.673 106.542C123.673 107.597 122.852 108.418 121.915 108.418Z" fill="#173D7B"/>
<path fill-rule="evenodd" clip-rule="evenodd" d="M111.718 117.794C110.78 117.677 110.077 116.857 110.194 115.919C110.194 114.981 111.014 114.278 112.069 114.278C113.007 114.395 113.827 115.216 113.71 116.271C113.593 117.325 112.655 118.029 111.718 117.794Z" fill="#173D7B"/>
<path fill-rule="evenodd" clip-rule="evenodd" d="M109.842 127.054C108.905 126.819 108.319 125.765 108.553 124.944C108.787 124.006 109.725 123.42 110.663 123.655C111.6 123.889 112.186 124.827 111.952 125.765C111.718 126.819 110.78 127.405 109.842 127.054Z" fill="#173D7B"/>
<path fill-rule="evenodd" clip-rule="evenodd" d="M106.443 135.962C105.623 135.493 105.154 134.555 105.623 133.618C106.092 132.797 107.029 132.328 107.967 132.68C108.905 133.031 109.373 134.086 108.905 135.024C108.319 135.962 107.264 136.313 106.443 135.962Z" fill="#173D7B"/>
<path fill-rule="evenodd" clip-rule="evenodd" d="M101.755 144.166C101.403 143.932 101.169 143.463 101.052 143.111C100.935 142.642 101.052 142.174 101.286 141.822C101.755 141.002 102.81 140.767 103.63 141.236C104.451 141.705 104.685 142.877 104.216 143.697C103.982 144.166 103.513 144.401 103.161 144.518C102.575 144.518 102.107 144.401 101.755 144.166Z" fill="#173D7B"/>
<path fill-rule="evenodd" clip-rule="evenodd" d="M95.7773 151.433C95.074 150.73 95.074 149.675 95.6601 148.972C96.2461 148.268 97.4182 148.268 98.1215 148.855C98.8247 149.441 98.9419 150.613 98.2387 151.316C97.5354 152.019 96.4805 152.136 95.7773 151.433Z" fill="#173D7B"/>
<path fill-rule="evenodd" clip-rule="evenodd" d="M88.7448 157.762C88.1588 156.942 88.276 155.887 89.0964 155.301C89.7997 154.715 90.8546 154.715 91.5578 155.535C92.1439 156.239 92.1439 157.411 91.3234 158.114C90.3857 158.7 89.3309 158.583 88.7448 157.762Z" fill="#173D7B"/>
<path fill-rule="evenodd" clip-rule="evenodd" d="M80.7747 163.037C80.3059 162.216 80.5403 161.044 81.3608 160.575C82.1812 160.107 83.2361 160.341 83.8221 161.161C84.2909 161.982 84.0565 163.037 83.2361 163.623C82.2984 164.092 81.2435 163.857 80.7747 163.037Z" fill="#173D7B"/>
<path fill-rule="evenodd" clip-rule="evenodd" d="M72.1012 166.787C71.7496 165.85 72.2185 164.912 73.1561 164.56C74.0938 164.209 75.0314 164.678 75.5003 165.615C75.8519 166.553 75.3831 167.491 74.4454 167.842C73.5077 168.194 72.4529 167.725 72.1012 166.787Z" fill="#173D7B"/>
<path fill-rule="evenodd" clip-rule="evenodd" d="M63.0762 169.249C62.8418 168.311 63.545 167.491 64.4827 167.256C65.4203 167.022 66.358 167.608 66.5924 168.545C66.8268 169.483 66.2408 170.421 65.1859 170.655C64.1311 170.89 63.1934 170.186 63.0762 169.249Z" fill="#173D7B"/>
<path fill-rule="evenodd" clip-rule="evenodd" d="M53.5823 170.186C53.5823 169.249 54.2856 168.428 55.2233 168.311C56.1609 168.311 56.9814 169.014 57.0986 169.952C57.2158 170.89 56.3953 171.71 55.4577 171.827C54.52 171.945 53.5823 171.241 53.5823 170.186Z" fill="#173D7B"/>
<path fill-rule="evenodd" clip-rule="evenodd" d="M44.2057 169.718C44.3229 168.78 45.1433 168.077 46.081 168.194C47.0187 168.194 47.7219 169.014 47.7219 170.069C47.6047 171.007 46.7842 171.827 45.7294 171.71C44.7917 171.593 44.0884 170.655 44.2057 169.718Z" fill="#173D7B"/>
<path fill-rule="evenodd" clip-rule="evenodd" d="M34.9462 167.842C35.1806 166.905 36.2354 166.319 37.0559 166.553C37.9936 166.787 38.5796 167.725 38.3452 168.663C38.1108 169.6 37.1731 170.186 36.2354 169.952C35.1806 169.718 34.5945 168.78 34.9462 167.842Z" fill="#173D7B"/>
<path fill-rule="evenodd" clip-rule="evenodd" d="M26.1555 164.443C26.6244 163.623 27.562 163.154 28.4997 163.623C29.3202 164.092 29.789 165.029 29.4374 165.967C29.0857 166.905 28.0309 167.373 27.0932 166.905C26.0383 166.319 25.6867 165.264 26.1555 164.443Z" fill="#173D7B"/>
<path fill-rule="evenodd" clip-rule="evenodd" d="M17.8338 159.755C18.0682 159.403 18.5371 159.169 18.8887 159.052C19.3575 158.934 19.8263 159.052 20.178 159.286C20.9984 159.755 21.2328 160.81 20.764 161.63C20.2952 162.451 19.1231 162.685 18.3026 162.216C17.8338 161.982 17.5994 161.513 17.4822 161.161C17.4822 160.575 17.5994 160.107 17.8338 159.755Z" fill="#173D7B"/>
<path fill-rule="evenodd" clip-rule="evenodd" d="M10.5668 153.777C11.2701 153.074 12.325 153.074 13.0282 153.66C13.7315 154.246 13.7315 155.418 13.1454 156.121C12.5594 156.825 11.3873 156.942 10.684 156.239C9.9808 155.535 9.86359 154.481 10.5668 153.777Z" fill="#173D7B"/>
<path fill-rule="evenodd" clip-rule="evenodd" d="M4.23761 146.745C5.05807 146.159 6.11295 146.276 6.69899 147.096C7.28503 147.8 7.28503 148.855 6.46457 149.558C5.76132 150.144 4.58924 150.144 3.88599 149.323C3.29995 148.386 3.41716 147.331 4.23761 146.745Z" fill="#173D7B"/>
<path fill-rule="evenodd" clip-rule="evenodd" d="M-1.03677 138.775C-0.216308 138.306 0.955777 138.54 1.42461 139.361C1.89344 140.181 1.65903 141.236 0.838569 141.822C0.0181113 142.291 -1.03677 142.056 -1.62281 141.236C-2.09164 140.298 -1.85722 139.243 -1.03677 138.775Z" fill="#173D7B"/>
<path fill-rule="evenodd" clip-rule="evenodd" d="M2.36231 75.8338C2.71394 76.0682 2.94835 76.537 3.06556 76.8886C3.18277 77.3575 3.06557 77.8263 2.83115 78.1779C2.36232 78.9984 1.30744 79.2328 0.48698 78.764C-0.33348 78.2951 -0.567897 77.1231 -0.099063 76.3026C0.135354 75.8338 0.604185 75.5994 0.955811 75.4821C1.42465 75.4821 1.89348 75.5994 2.36231 75.8338Z" fill="#173D7B"/>
<path fill-rule="evenodd" clip-rule="evenodd" d="M8.33998 68.5668C9.04323 69.2701 9.04323 70.325 8.45719 71.0282C7.87115 71.7315 6.69906 71.7315 5.99581 71.1454C5.29256 70.5594 5.17536 69.3873 5.87861 68.684C6.46465 67.9808 7.63673 67.8636 8.33998 68.5668Z" fill="#173D7B"/>
<path fill-rule="evenodd" clip-rule="evenodd" d="M15.3724 62.2376C15.9585 63.058 15.8412 64.1129 15.0208 64.699C14.3175 65.285 13.2627 65.285 12.5594 64.4645C11.9734 63.7613 11.9734 62.5892 12.7938 61.886C13.6143 61.2999 14.6692 61.4171 15.3724 62.2376Z" fill="#173D7B"/>
<path fill-rule="evenodd" clip-rule="evenodd" d="M23.2254 56.9632C23.6942 57.7837 23.4598 58.9558 22.6394 59.4246C21.8189 59.8934 20.764 59.659 20.178 58.8385C19.7091 58.0181 19.9436 56.9632 20.764 56.3772C21.7017 55.9083 22.7566 56.1427 23.2254 56.9632Z" fill="#173D7B"/>
<path fill-rule="evenodd" clip-rule="evenodd" d="M31.8988 53.2125C32.2504 54.1502 31.7816 55.0879 30.8439 55.4395C29.9062 55.7911 28.9686 55.3223 28.4997 54.3846C28.1481 53.447 28.6169 52.5093 29.5546 52.1577C30.4923 51.806 31.5472 52.2749 31.8988 53.2125Z" fill="#173D7B"/>
<path fill-rule="evenodd" clip-rule="evenodd" d="M41.041 50.7512C41.2754 51.6889 40.5722 52.5093 39.6345 52.7438C38.6968 52.9782 37.7592 52.3921 37.5248 51.4545C37.2903 50.5168 37.8764 49.5791 38.9313 49.3447C39.8689 49.1103 40.8066 49.8136 41.041 50.7512Z" fill="#173D7B"/>
<path fill-rule="evenodd" clip-rule="evenodd" d="M50.4177 49.8135C50.4177 50.7512 49.7144 51.5716 48.7768 51.6889C47.8391 51.6889 47.0186 50.9856 46.9014 50.0479C46.7842 49.1103 47.6047 48.2898 48.5423 48.1726C49.5972 48.0554 50.4177 48.8759 50.4177 49.8135Z" fill="#173D7B"/>
<path fill-rule="evenodd" clip-rule="evenodd" d="M59.7943 50.2823C59.6771 51.22 58.8567 51.9233 57.919 51.806C56.9813 51.806 56.2781 50.9856 56.2781 49.9307C56.3953 48.993 57.2157 48.1726 58.2706 48.2898C59.3255 48.407 60.0287 49.3447 59.7943 50.2823Z" fill="#173D7B"/>
<path fill-rule="evenodd" clip-rule="evenodd" d="M69.0538 52.1577C68.8194 53.0953 67.7646 53.6814 66.9441 53.4469C66.0064 53.2125 65.4204 52.2749 65.6548 51.3372C65.8892 50.3995 66.8269 49.8135 67.7646 50.0479C68.8194 50.2823 69.4055 51.22 69.0538 52.1577Z" fill="#173D7B"/>
<path fill-rule="evenodd" clip-rule="evenodd" d="M77.9616 55.6739C77.4928 56.4944 76.5552 56.9632 75.6175 56.4944C74.797 56.0256 74.3282 55.0879 74.6798 54.1502C75.0314 53.2126 76.0863 52.7437 77.024 53.2126C77.9616 53.6814 78.3133 54.7363 77.9616 55.6739Z" fill="#173D7B"/>
<path fill-rule="evenodd" clip-rule="evenodd" d="M86.1663 60.3622C85.9318 60.7139 85.463 60.9483 85.1114 61.0655C84.6425 61.1827 84.1737 61.0655 83.8221 60.8311C83.0016 60.3622 82.7672 59.3074 83.236 58.4869C83.7049 57.6665 84.877 57.432 85.6974 57.9009C86.1663 58.1353 86.4007 58.6041 86.5179 58.9557C86.5179 59.4246 86.4007 59.8934 86.1663 60.3622Z" fill="#173D7B"/>
<path fill-rule="evenodd" clip-rule="evenodd" d="M93.4332 66.3399C92.7299 67.0432 91.6751 67.0432 90.9718 66.4571C90.2685 65.8711 90.2685 64.699 90.8546 63.9958C91.4406 63.2925 92.6127 63.1753 93.316 63.8785C94.0192 64.4646 94.1364 65.6367 93.4332 66.3399Z" fill="#173D7B"/>
<path fill-rule="evenodd" clip-rule="evenodd" d="M99.7624 73.3724C98.942 73.9584 97.8871 73.8412 97.301 73.0208C96.715 72.3175 96.715 71.2626 97.5354 70.5594C98.2387 69.9733 99.4108 69.9733 100.114 70.7938C100.7 71.6143 100.583 72.6691 99.7624 73.3724Z" fill="#173D7B"/>
<path fill-rule="evenodd" clip-rule="evenodd" d="M105.037 81.2253C104.216 81.6942 103.044 81.4597 102.575 80.6393C102.107 79.8188 102.341 78.764 103.161 78.1779C103.982 77.7091 105.037 77.9435 105.623 78.764C106.092 79.7016 105.857 80.7565 105.037 81.2253Z" fill="#173D7B"/>
<path fill-rule="evenodd" clip-rule="evenodd" d="M108.787 89.8988C107.85 90.2504 106.912 89.7816 106.56 88.8439C106.209 87.9062 106.678 86.9686 107.615 86.4997C108.553 86.1481 109.491 86.6169 109.842 87.5546C110.194 88.4923 109.725 89.5471 108.787 89.8988Z" fill="#173D7B"/>
<path fill-rule="evenodd" clip-rule="evenodd" d="M111.249 99.041C110.311 99.2754 109.491 98.5722 109.256 97.6345C109.022 96.6968 109.608 95.7592 110.546 95.5248C111.483 95.2903 112.421 95.8764 112.655 96.9313C112.89 97.8689 112.186 98.8066 111.249 99.041Z" fill="#173D7B"/>
<path fill-rule="evenodd" clip-rule="evenodd" d="M112.186 108.418C111.249 108.418 110.428 107.714 110.311 106.777C110.311 105.839 111.014 105.019 111.952 104.901C112.89 104.784 113.71 105.605 113.827 106.542C113.945 107.597 113.241 108.418 112.186 108.418Z" fill="#173D7B"/>
<path fill-rule="evenodd" clip-rule="evenodd" d="M102.107 117.794C101.169 117.677 100.466 116.74 100.583 115.802C100.817 114.864 101.521 114.161 102.458 114.278C103.396 114.395 104.216 115.216 103.982 116.271C103.982 117.208 103.044 117.912 102.107 117.794Z" fill="#173D7B"/>
<path fill-rule="evenodd" clip-rule="evenodd" d="M99.7624 126.819C98.8248 126.468 98.3559 125.53 98.7075 124.592C98.942 123.655 99.8796 123.186 100.817 123.42C101.755 123.655 102.341 124.71 102.107 125.647C101.755 126.702 100.7 127.171 99.7624 126.819Z" fill="#173D7B"/>
<path fill-rule="evenodd" clip-rule="evenodd" d="M95.8945 135.376C95.074 134.907 94.8396 133.852 95.1913 133.031C95.5429 132.211 96.5978 131.859 97.5354 132.328C98.3559 132.797 98.7075 133.852 98.3559 134.79C97.887 135.493 96.715 135.844 95.8945 135.376Z" fill="#173D7B"/>
<path fill-rule="evenodd" clip-rule="evenodd" d="M90.5029 142.994C89.7997 142.291 89.6825 141.353 90.2685 140.533C90.8546 139.83 91.9094 139.595 92.7299 140.181C93.5504 140.767 93.6675 141.822 93.0815 142.642C92.3783 143.58 91.2062 143.58 90.5029 142.994Z" fill="#173D7B"/>
<path fill-rule="evenodd" clip-rule="evenodd" d="M83.8221 149.441C83.4704 149.089 83.3532 148.62 83.4704 148.151C83.4704 147.683 83.7049 147.214 84.0565 146.979C84.7597 146.393 85.8146 146.393 86.5179 147.096C87.2211 147.8 87.1039 148.972 86.4006 149.558C86.049 149.909 85.5802 150.027 85.1114 150.027C84.5253 150.027 84.1737 149.909 83.8221 149.441Z" fill="#173D7B"/>
<path fill-rule="evenodd" clip-rule="evenodd" d="M76.0864 154.715C75.6175 153.895 75.9692 152.722 76.6724 152.254C77.4929 151.785 78.5477 152.019 79.0166 152.84C79.4854 153.66 79.251 154.715 78.4305 155.301C77.6101 155.77 76.438 155.535 76.0864 154.715Z" fill="#173D7B"/>
<path fill-rule="evenodd" clip-rule="evenodd" d="M67.4129 158.348C67.1785 157.411 67.6473 156.356 68.4678 156.121C69.2882 155.77 70.3431 156.239 70.6947 157.176C71.0464 158.114 70.5775 159.052 69.6399 159.403C68.7022 159.755 67.6473 159.286 67.4129 158.348Z" fill="#173D7B"/>
<path fill-rule="evenodd" clip-rule="evenodd" d="M58.2707 160.341C58.1535 159.403 58.8567 158.466 59.6772 158.348C60.6148 158.231 61.5525 158.817 61.6697 159.872C61.9041 160.81 61.2009 161.747 60.2632 161.865C59.3255 161.865 58.3879 161.279 58.2707 160.341Z" fill="#173D7B"/>
<path fill-rule="evenodd" clip-rule="evenodd" d="M48.894 160.575C49.0112 159.638 49.7144 158.817 50.6521 158.934C51.5898 159.052 52.293 159.755 52.4102 160.693C52.4102 161.63 51.5898 162.451 50.6521 162.451C49.5972 162.334 48.894 161.513 48.894 160.575Z" fill="#173D7B"/>
<path fill-rule="evenodd" clip-rule="evenodd" d="M39.6345 159.169C39.8689 158.231 40.8066 157.645 41.7443 157.88C42.6819 158.114 43.268 158.934 43.1508 159.872C43.0336 160.81 42.0959 161.513 41.041 161.279C39.9862 161.044 39.4001 160.107 39.6345 159.169Z" fill="#173D7B"/>
<path fill-rule="evenodd" clip-rule="evenodd" d="M30.8439 156.004C31.3127 155.067 32.2504 154.715 33.0709 155.184C33.8913 155.535 34.3602 156.473 34.0085 157.411C33.6569 158.348 32.602 158.817 31.6644 158.466C30.8439 157.997 30.4923 156.942 30.8439 156.004Z" fill="#173D7B"/>
<path fill-rule="evenodd" clip-rule="evenodd" d="M22.7565 151.433C23.3426 150.613 24.3974 150.496 25.2179 150.964C26.0383 151.433 26.2727 152.488 25.8039 153.309C25.3351 154.129 24.163 154.363 23.3426 153.895C22.4049 153.309 22.1705 152.136 22.7565 151.433Z" fill="#173D7B"/>
<path fill-rule="evenodd" clip-rule="evenodd" d="M15.6069 145.338C16.3101 144.635 17.365 144.752 18.0683 145.338C18.7715 145.924 18.7715 147.096 18.1855 147.8C17.5994 148.503 16.4274 148.62 15.7241 147.917C14.9036 147.096 14.9036 145.924 15.6069 145.338Z" fill="#173D7B"/>
<path fill-rule="evenodd" clip-rule="evenodd" d="M9.74643 138.071C10.5669 137.603 11.6218 137.72 12.2078 138.423C12.7938 139.126 12.5594 140.298 11.8562 140.884C11.0357 141.47 9.98084 141.353 9.3948 140.533C8.69155 139.712 8.92597 138.54 9.74643 138.071Z" fill="#173D7B"/>
<path fill-rule="evenodd" clip-rule="evenodd" d="M5.29254 129.867C6.23021 129.515 7.28509 129.867 7.63671 130.687C7.98834 131.508 7.63671 132.563 6.81625 133.031C5.99579 133.5 4.94091 133.149 4.47208 132.211C4.00324 131.273 4.47208 130.218 5.29254 129.867Z" fill="#173D7B"/>
<path fill-rule="evenodd" clip-rule="evenodd" d="M2.47947 120.842C3.41713 120.607 4.3548 121.193 4.58922 122.131C4.82364 123.069 4.23759 124.006 3.29993 124.241C2.36226 124.475 1.4246 124.006 1.19018 122.952C0.955763 122.014 1.5418 121.076 2.47947 120.842Z" fill="#173D7B"/>
<path fill-rule="evenodd" clip-rule="evenodd" d="M1.42465 111.582C2.36232 111.582 3.18277 112.286 3.29998 113.223C3.29998 114.161 2.59673 114.981 1.65907 115.099C0.7214 115.216 -0.0990613 114.513 -0.21627 113.458C-0.333478 112.52 0.369774 111.582 1.42465 111.582Z" fill="#173D7B"/>
<path fill-rule="evenodd" clip-rule="evenodd" d="M2.01065 102.323C2.94831 102.44 3.65156 103.378 3.53435 104.315C3.29994 105.253 2.59669 105.956 1.65902 105.839C0.721355 105.722 -0.0991066 104.901 0.13531 103.847C0.13531 102.792 0.955771 102.088 2.01065 102.323Z" fill="#173D7B"/>
<path fill-rule="evenodd" clip-rule="evenodd" d="M4.2376 93.1806C5.17527 93.5322 5.6441 94.4699 5.29248 95.4075C5.05806 96.3452 4.12039 96.814 3.18272 96.5796C2.24505 96.3452 1.65901 95.2903 1.89343 94.3527C2.24505 93.415 3.29993 92.8289 4.2376 93.1806Z" fill="#173D7B"/>
<path fill-rule="evenodd" clip-rule="evenodd" d="M8.10551 84.7416C8.92597 85.2104 9.16039 86.2653 8.80876 87.0858C8.45714 87.9062 7.40226 88.2579 6.46459 87.789C5.64413 87.3202 5.29251 86.2653 5.64413 85.3276C6.11297 84.5072 7.28506 84.2728 8.10551 84.7416Z" fill="#173D7B"/>
<path fill-rule="evenodd" clip-rule="evenodd" d="M13.497 77.1231C14.2003 77.8263 14.3175 78.764 13.7315 79.5844C13.1454 80.2877 12.0905 80.5221 11.2701 79.9361C10.4496 79.35 10.3324 78.2952 10.9185 77.4747C11.6217 76.537 12.7938 76.4198 13.497 77.1231Z" fill="#173D7B"/>
<path fill-rule="evenodd" clip-rule="evenodd" d="M20.178 70.5594C20.5296 70.911 20.6468 71.3798 20.5296 71.8487C20.5296 72.3175 20.2952 72.7863 19.9436 73.0207C19.2403 73.6068 18.1854 73.6068 17.4822 72.9035C16.7789 72.2003 16.8961 71.0282 17.5994 70.4422C17.951 70.0905 18.4199 69.9733 18.8887 69.9733C19.4747 69.9733 19.9436 70.2077 20.178 70.5594Z" fill="#173D7B"/>
<path fill-rule="evenodd" clip-rule="evenodd" d="M28.0309 65.4022C28.4997 66.2227 28.1481 67.3948 27.4449 67.8636C26.6244 68.3324 25.5695 68.098 25.1007 67.2776C24.6319 66.4571 24.8663 65.4022 25.6867 64.8162C26.5072 64.2301 27.5621 64.4646 28.0309 65.4022Z" fill="#173D7B"/>
<path fill-rule="evenodd" clip-rule="evenodd" d="M36.5871 61.6516C36.8215 62.5892 36.3527 63.6441 35.5322 63.8785C34.7118 64.2301 33.6569 63.7613 33.3053 62.8236C32.9537 61.886 33.4225 60.9483 34.3602 60.5967C35.2978 60.2451 36.3527 60.8311 36.5871 61.6516Z" fill="#173D7B"/>
<path fill-rule="evenodd" clip-rule="evenodd" d="M45.7293 59.7762C45.8465 60.7139 45.1433 61.6516 44.3228 61.7688C43.3852 61.886 42.4475 61.2999 42.3303 60.2451C42.0959 59.3074 42.7991 58.3697 43.7368 58.2525C44.7917 58.1353 45.6121 58.7214 45.7293 59.7762Z" fill="#173D7B"/>
<path fill-rule="evenodd" clip-rule="evenodd" d="M55.106 59.4246C54.9888 60.3623 54.2856 61.1827 53.3479 61.0655C52.4102 60.9483 51.707 60.2451 51.5898 59.3074C51.5898 58.3697 52.4102 57.5493 53.3479 57.5493C54.4028 57.6665 55.2232 58.487 55.106 59.4246Z" fill="#173D7B"/>
<path fill-rule="evenodd" clip-rule="evenodd" d="M64.3655 60.8311C64.1311 61.7688 63.1934 62.3548 62.2557 62.1204C61.318 61.886 60.732 61.0655 60.8492 60.1279C60.9664 59.1902 61.9041 58.487 62.959 58.7214C64.0138 58.9558 64.5999 59.8935 64.3655 60.8311Z" fill="#173D7B"/>
<path fill-rule="evenodd" clip-rule="evenodd" d="M73.1561 63.9957C72.6873 64.9334 71.7496 65.285 70.9292 64.8162C70.1087 64.4646 69.6399 63.5269 69.9915 62.5892C70.3431 61.6516 71.398 61.1827 72.3357 61.5343C73.1561 62.0032 73.625 63.0581 73.1561 63.9957Z" fill="#173D7B"/>
<path fill-rule="evenodd" clip-rule="evenodd" d="M81.2435 68.6841C80.6574 69.5045 79.6026 69.6217 78.7821 69.1529C77.9617 68.6841 77.7272 67.6292 78.1961 66.8087C78.6649 65.9883 79.837 65.7539 80.6574 66.2227C81.7123 66.6915 81.8295 67.8636 81.2435 68.6841Z" fill="#173D7B"/>
<path fill-rule="evenodd" clip-rule="evenodd" d="M88.3932 74.6617C87.6899 75.365 86.635 75.2478 85.9318 74.6617C85.2285 74.0757 85.2285 72.9036 85.8146 72.2003C86.4006 71.4971 87.5727 71.3799 88.276 72.0831C89.0964 72.9036 89.0964 74.0757 88.3932 74.6617Z" fill="#173D7B"/>
<path fill-rule="evenodd" clip-rule="evenodd" d="M94.2536 81.9286C93.4331 82.3974 92.3783 82.2802 91.7922 81.577C91.2062 80.8737 91.4406 79.7016 92.1439 79.1156C92.9643 78.5296 94.0192 78.6468 94.6052 79.4672C95.3085 80.2877 95.0741 81.4598 94.2536 81.9286Z" fill="#173D7B"/>
<path fill-rule="evenodd" clip-rule="evenodd" d="M98.7075 90.2504C97.7699 90.602 96.715 90.2504 96.3634 89.4299C96.0117 88.6095 96.3634 87.5546 97.1838 87.0858C98.0043 86.6169 99.0591 86.9685 99.528 87.9062C99.9968 88.8439 99.6452 89.8988 98.7075 90.2504Z" fill="#173D7B"/>
<path fill-rule="evenodd" clip-rule="evenodd" d="M101.521 99.1582C100.583 99.3926 99.6452 98.8066 99.4108 97.8689C99.1764 96.9313 99.7624 95.9936 100.7 95.7592C101.638 95.5248 102.575 95.9936 102.81 97.0485C103.044 97.9861 102.458 98.9238 101.521 99.1582Z" fill="#173D7B"/>
<path fill-rule="evenodd" clip-rule="evenodd" d="M102.693 108.418C101.755 108.418 100.934 107.714 100.817 106.777C100.817 105.839 101.521 105.019 102.458 104.901C103.396 104.784 104.216 105.488 104.334 106.542C104.334 107.597 103.63 108.418 102.693 108.418Z" fill="#173D7B"/>
<path fill-rule="evenodd" clip-rule="evenodd" d="M92.3783 117.677C91.4406 117.443 90.7374 116.622 90.8546 115.685C90.9718 114.747 91.9094 114.161 92.8471 114.278C93.7848 114.395 94.488 115.216 94.3708 116.271C94.2536 117.208 93.3159 117.794 92.3783 117.677Z" fill="#173D7B"/>
<path fill-rule="evenodd" clip-rule="evenodd" d="M89.6825 126.468C89.2137 126.233 88.9792 125.882 88.7448 125.53C88.5104 125.178 88.5104 124.71 88.6276 124.241C88.9792 123.42 89.9169 122.951 90.8546 123.303C91.7922 123.655 92.2611 124.592 91.9094 125.53C91.7922 125.999 91.4406 126.351 90.9718 126.585C90.6202 126.585 90.1513 126.585 89.6825 126.468Z" fill="#173D7B"/>
<path fill-rule="evenodd" clip-rule="evenodd" d="M85.1114 134.321C84.2909 133.735 84.1737 132.68 84.6425 131.977C85.1114 131.156 86.1662 131.039 86.9867 131.508C87.8072 131.977 88.0416 133.149 87.5727 133.969C86.9867 134.79 85.8146 134.907 85.1114 134.321Z" fill="#173D7B"/>
<path fill-rule="evenodd" clip-rule="evenodd" d="M78.7821 141.119C78.196 140.416 78.196 139.243 78.8993 138.657C79.6025 138.071 80.6574 138.071 81.3607 138.775C82.0639 139.478 82.0639 140.533 81.3607 141.236C80.5402 141.939 79.4853 141.822 78.7821 141.119Z" fill="#173D7B"/>
<path fill-rule="evenodd" clip-rule="evenodd" d="M71.2808 146.393C70.812 145.573 71.1636 144.518 71.8668 144.049C72.6873 143.58 73.7422 143.815 74.211 144.635C74.7971 145.455 74.4454 146.51 73.625 147.096C72.8045 147.565 71.7496 147.214 71.2808 146.393Z" fill="#173D7B"/>
<path fill-rule="evenodd" clip-rule="evenodd" d="M62.7245 149.675C62.4901 148.737 62.9589 147.8 63.8966 147.565C64.7171 147.214 65.6547 147.682 66.0064 148.62C66.358 149.558 65.8892 150.495 64.9515 150.847C63.8966 151.199 62.9589 150.613 62.7245 149.675Z" fill="#173D7B"/>
<path fill-rule="evenodd" clip-rule="evenodd" d="M53.5823 151.081C53.5823 150.144 54.2856 149.323 55.2232 149.206C56.1609 149.206 56.9814 149.792 57.0986 150.847C57.2158 151.785 56.5125 152.722 55.5749 152.722C54.4028 152.722 53.5823 152.019 53.5823 151.081Z" fill="#173D7B"/>
<path fill-rule="evenodd" clip-rule="evenodd" d="M44.4401 150.378C44.6745 149.441 45.495 148.737 46.4326 148.855C47.3703 148.972 47.9563 149.909 47.8391 150.847C47.7219 151.785 46.9015 152.488 45.8466 152.371C44.9089 152.254 44.2057 151.316 44.4401 150.378Z" fill="#173D7B"/>
<path fill-rule="evenodd" clip-rule="evenodd" d="M35.6494 147.682C35.8838 147.214 36.2355 146.979 36.5871 146.745C36.9387 146.51 37.4075 146.51 37.8764 146.628C38.6968 146.979 39.1657 147.917 38.814 148.855C38.4624 149.792 37.5247 150.261 36.5871 149.909C36.1183 149.792 35.7666 149.441 35.5322 148.972C35.415 148.62 35.415 148.151 35.6494 147.682Z" fill="#173D7B"/>
<path fill-rule="evenodd" clip-rule="evenodd" d="M27.6793 143.111C28.2653 142.291 29.3202 142.174 30.0234 142.642C30.8439 143.111 30.9611 144.166 30.4923 144.987C30.0234 145.807 28.8513 146.041 28.0309 145.573C27.2104 144.987 27.0932 143.815 27.6793 143.111Z" fill="#173D7B"/>
<path fill-rule="evenodd" clip-rule="evenodd" d="M20.8812 136.782C21.5844 136.196 22.7565 136.196 23.3426 136.899C23.9286 137.603 23.9286 138.657 23.2254 139.361C22.5221 140.064 21.4672 140.064 20.764 139.361C20.0607 138.54 20.1779 137.485 20.8812 136.782Z" fill="#173D7B"/>
<path fill-rule="evenodd" clip-rule="evenodd" d="M15.724 129.281C16.5445 128.812 17.5994 129.164 18.0682 129.867C18.5371 130.687 18.3026 131.742 17.4822 132.211C16.6617 132.797 15.6068 132.445 15.0208 131.625C14.552 130.805 14.7864 129.75 15.724 129.281Z" fill="#173D7B"/>
<path fill-rule="evenodd" clip-rule="evenodd" d="M12.325 120.725C13.2626 120.49 14.2003 120.959 14.4347 121.897C14.7863 122.717 14.3175 123.655 13.3798 124.006C12.4422 124.358 11.5045 123.889 11.1529 122.951C10.8013 121.897 11.3873 120.959 12.325 120.725Z" fill="#173D7B"/>
<path fill-rule="evenodd" clip-rule="evenodd" d="M11.0357 111.582C11.9733 111.582 12.7938 112.286 12.911 113.223C12.911 114.161 12.325 114.981 11.2701 115.099C10.3324 115.216 9.39475 114.513 9.39475 113.575C9.27754 112.403 9.9808 111.582 11.0357 111.582Z" fill="#173D7B"/>
<path fill-rule="evenodd" clip-rule="evenodd" d="M11.6217 102.44C12.5594 102.674 13.2626 103.495 13.1454 104.433C13.0282 105.37 12.0906 105.956 11.1529 105.839C10.2152 105.722 9.51197 104.901 9.62917 103.847C9.74638 102.909 10.6841 102.206 11.6217 102.44Z" fill="#173D7B"/>
<path fill-rule="evenodd" clip-rule="evenodd" d="M14.3175 93.6495C14.7864 93.8839 15.0208 94.2355 15.2552 94.5871C15.4896 94.9387 15.4896 95.4076 15.3724 95.8764C15.0208 96.6969 14.0831 97.1657 13.1454 96.8141C12.2078 96.4624 11.7389 95.5248 12.0906 94.5871C12.2078 94.1183 12.5594 93.7667 13.0282 93.5323C13.3799 93.415 13.8487 93.415 14.3175 93.6495Z" fill="#173D7B"/>
<path fill-rule="evenodd" clip-rule="evenodd" d="M19.0059 85.6792C19.8263 86.2653 19.9435 87.3201 19.4747 88.0234C19.0059 88.8439 17.951 88.9611 17.1305 88.4922C16.3101 88.0234 16.0757 86.8513 16.5445 86.0309C17.0133 85.2104 18.1854 85.0932 19.0059 85.6792Z" fill="#173D7B"/>
<path fill-rule="evenodd" clip-rule="evenodd" d="M25.218 78.8812C25.804 79.5844 25.804 80.7565 25.1007 81.3426C24.3975 81.9286 23.3426 81.9286 22.6394 81.2254C21.9361 80.5221 21.9361 79.4672 22.6394 78.764C23.4598 78.0607 24.5147 78.1779 25.218 78.8812Z" fill="#173D7B"/>
<path fill-rule="evenodd" clip-rule="evenodd" d="M32.8365 73.724C33.3053 74.5445 32.9537 75.5994 32.2504 76.0682C31.43 76.537 30.3751 76.3026 29.9062 75.4822C29.3202 74.6617 29.6718 73.6068 30.4923 73.0208C31.1955 72.552 32.3676 72.7864 32.8365 73.724Z" fill="#173D7B"/>
<path fill-rule="evenodd" clip-rule="evenodd" d="M41.3927 70.325C41.6271 71.2626 41.1582 72.2003 40.2206 72.4347C39.4001 72.7863 38.4624 72.3175 38.1108 71.3798C37.7592 70.4422 38.228 69.5045 39.1657 69.1529C40.1034 68.8013 41.1582 69.3873 41.3927 70.325Z" fill="#173D7B"/>
<path fill-rule="evenodd" clip-rule="evenodd" d="M50.4177 69.0357C50.4177 69.9734 49.7145 70.7938 48.7768 70.911C47.8391 70.911 47.0187 70.325 46.9015 69.2701C46.7842 68.3324 47.4875 67.3948 48.4252 67.3948C49.5973 67.2776 50.4177 67.9808 50.4177 69.0357Z" fill="#173D7B"/>
<path fill-rule="evenodd" clip-rule="evenodd" d="M59.6772 69.6217C59.4428 70.5594 58.6223 71.2626 57.6846 71.1454C56.747 71.0282 56.1609 70.0905 56.2781 69.1529C56.3953 68.2152 57.2158 67.512 58.2707 67.6292C59.2083 67.7464 59.7944 68.684 59.6772 69.6217Z" fill="#173D7B"/>
<path fill-rule="evenodd" clip-rule="evenodd" d="M68.4678 72.3176C68.2334 72.7864 67.8818 73.0208 67.5301 73.2552C67.1785 73.4896 66.7097 73.4896 66.2408 73.3724C65.4204 73.0208 64.9516 72.0831 65.3032 71.1455C65.6548 70.2078 66.5925 69.739 67.5301 70.0906C67.999 70.2078 68.3506 70.5594 68.585 71.0283C68.585 71.3799 68.585 71.8487 68.4678 72.3176Z" fill="#173D7B"/>
<path fill-rule="evenodd" clip-rule="evenodd" d="M76.3207 77.0059C75.7347 77.8263 74.6798 77.9435 73.9766 77.4747C73.1561 77.0059 73.0389 75.951 73.5077 75.1305C73.9766 74.3101 75.1487 74.0757 75.9691 74.5445C76.7896 75.0133 76.9068 76.1854 76.3207 77.0059Z" fill="#173D7B"/>
<path fill-rule="evenodd" clip-rule="evenodd" d="M83.1188 83.2179C82.4156 83.8039 81.2435 83.8039 80.6574 83.1007C80.0714 82.3974 80.0714 81.3425 80.7747 80.6393C81.4779 79.936 82.5328 79.936 83.236 80.6393C83.9393 81.4597 83.8221 82.5146 83.1188 83.2179Z" fill="#173D7B"/>
<path fill-rule="evenodd" clip-rule="evenodd" d="M88.3932 90.8364C87.5727 91.3053 86.5178 90.9536 86.049 90.2504C85.5802 89.4299 85.8146 88.375 86.6351 87.9062C87.4555 87.3202 88.5104 87.6718 89.0964 88.4923C89.5653 89.1955 89.2136 90.3676 88.3932 90.8364Z" fill="#173D7B"/>
<path fill-rule="evenodd" clip-rule="evenodd" d="M91.675 99.3926C90.7374 99.627 89.7997 99.1582 89.5653 98.2205C89.2137 97.4001 89.6825 96.4624 90.6202 96.1108C91.5578 95.7591 92.4955 96.228 92.8471 97.1656C93.1987 98.1033 92.6127 99.1582 91.675 99.3926Z" fill="#173D7B"/>
<path fill-rule="evenodd" clip-rule="evenodd" d="M93.0815 108.418C92.1438 108.418 91.3234 107.714 91.2062 106.777C91.2062 105.839 91.7922 105.019 92.8471 104.901C93.7848 104.784 94.7224 105.487 94.7224 106.425C94.7224 107.597 94.0192 108.418 93.0815 108.418Z" fill="#173D7B"/>
<path fill-rule="evenodd" clip-rule="evenodd" d="M82.5328 117.794C81.5952 117.56 81.0091 116.622 81.2435 115.685C81.3607 114.747 82.2984 114.161 83.2361 114.278C84.1738 114.395 84.877 115.333 84.6426 116.388C84.5254 117.443 83.4705 118.029 82.5328 117.794Z" fill="#173D7B"/>
<path fill-rule="evenodd" clip-rule="evenodd" d="M78.8994 126.351C78.0789 125.882 77.8445 124.827 78.1961 124.006C78.5477 123.186 79.6026 122.834 80.5403 123.303C81.4779 123.655 81.8295 124.827 81.3607 125.765C80.8919 126.585 79.7198 126.937 78.8994 126.351Z" fill="#173D7B"/>
<path fill-rule="evenodd" clip-rule="evenodd" d="M72.9218 133.617C72.3357 132.914 72.3357 131.742 73.039 131.156C73.625 130.453 74.7971 130.453 75.5003 131.156C76.2036 131.742 76.2036 132.914 75.5003 133.735C74.6799 134.321 73.5078 134.321 72.9218 133.617Z" fill="#173D7B"/>
<path fill-rule="evenodd" clip-rule="evenodd" d="M64.9515 138.657C64.5999 137.72 64.9515 136.782 65.772 136.313C66.5925 135.962 67.6473 136.196 68.1162 137.017C68.585 137.837 68.3506 139.009 67.4129 139.478C66.4752 139.947 65.4204 139.595 64.9515 138.657Z" fill="#173D7B"/>
<path fill-rule="evenodd" clip-rule="evenodd" d="M55.9265 141.236C55.8093 140.298 56.5125 139.361 57.333 139.243C58.2706 139.126 59.0911 139.595 59.3255 140.65C59.5599 141.588 58.9739 142.643 57.919 142.76C56.9813 142.877 56.0437 142.174 55.9265 141.236Z" fill="#173D7B"/>
<path fill-rule="evenodd" clip-rule="evenodd" d="M46.5499 141.002C46.7843 140.064 47.6047 139.361 48.5424 139.478C49.4801 139.595 50.1833 140.416 50.0661 141.353C50.0661 142.291 49.1284 143.111 48.0736 142.994C47.1359 142.877 46.4327 141.939 46.5499 141.002Z" fill="#173D7B"/>
<path fill-rule="evenodd" clip-rule="evenodd" d="M37.642 138.071C38.1109 137.251 39.1657 136.782 39.9862 137.251C40.8066 137.603 41.2755 138.54 40.9239 139.478C40.5722 140.416 39.5174 140.884 38.5797 140.416C37.642 139.947 37.1732 138.892 37.642 138.071Z" fill="#173D7B"/>
<path fill-rule="evenodd" clip-rule="evenodd" d="M30.0235 132.563C30.7267 131.859 31.7816 131.859 32.4848 132.445C33.1881 133.031 33.3053 134.086 32.7193 134.907C32.1332 135.61 30.9611 135.844 30.2579 135.141C29.4374 134.438 29.3202 133.266 30.0235 132.563Z" fill="#173D7B"/>
<path fill-rule="evenodd" clip-rule="evenodd" d="M24.3975 125.061C25.218 124.592 26.39 124.827 26.8589 125.647C27.0933 125.999 27.0933 126.468 27.0933 126.937C26.9761 127.405 26.7417 127.757 26.39 127.991C26.0384 128.226 25.5696 128.343 25.1008 128.226C24.6319 128.109 24.2803 127.874 23.9287 127.405C23.2254 126.702 23.4598 125.53 24.3975 125.061Z" fill="#173D7B"/>
<path fill-rule="evenodd" clip-rule="evenodd" d="M21.1157 116.271C22.0534 116.036 22.991 116.622 23.2254 117.56C23.4599 118.498 22.8738 119.435 21.9361 119.67C20.9985 120.021 20.0608 119.435 19.7092 118.38C19.592 117.443 20.178 116.505 21.1157 116.271Z" fill="#173D7B"/>
<path fill-rule="evenodd" clip-rule="evenodd" d="M20.6468 106.894C21.5845 107.011 22.4049 107.832 22.2877 108.769C22.2877 109.238 22.0533 109.59 21.7017 109.941C21.3501 110.293 20.9984 110.41 20.5296 110.41C20.0608 110.41 19.5919 110.176 19.2403 109.941C18.8887 109.59 18.7715 109.121 18.7715 108.652C18.8887 107.597 19.7092 106.777 20.6468 106.894Z" fill="#173D7B"/>
<path fill-rule="evenodd" clip-rule="evenodd" d="M22.991 97.7518C23.9287 98.1034 24.3975 99.1583 24.0459 99.9787C23.9287 100.448 23.5771 100.682 23.1082 100.916C22.7566 101.151 22.2878 101.151 21.8189 101.034C21.3501 100.916 20.9985 100.565 20.7641 100.213C20.5297 99.8615 20.5297 99.2755 20.7641 98.8066C20.9985 97.869 22.0534 97.4001 22.991 97.7518Z" fill="#173D7B"/>
<path fill-rule="evenodd" clip-rule="evenodd" d="M27.9137 89.7815C28.617 90.3676 28.7342 91.5397 28.2654 92.2429C27.6793 92.9462 26.6244 93.1806 25.804 92.5945C24.9835 92.0085 24.7491 90.9536 25.4524 90.1332C26.0384 89.3127 27.0933 89.1955 27.9137 89.7815Z" fill="#173D7B"/>
<path fill-rule="evenodd" clip-rule="evenodd" d="M34.9462 83.5695C35.1807 83.9212 35.2979 84.39 35.1806 84.8588C35.0634 85.3277 34.9462 85.6793 34.4774 86.0309C33.7742 86.6169 32.6021 86.3825 32.016 85.6793C31.43 84.976 31.5472 83.8039 32.3676 83.2179C32.8365 82.8663 33.3053 82.7491 33.7742 82.8663C34.243 82.8663 34.5946 83.2179 34.9462 83.5695Z" fill="#173D7B"/>
<path fill-rule="evenodd" clip-rule="evenodd" d="M43.5024 79.7017C43.7368 80.6393 43.268 81.577 42.4476 81.9286C41.6271 82.2802 40.5722 81.8114 40.2206 80.8737C39.869 79.9361 40.3378 78.9984 41.2755 78.6468C42.2131 78.178 43.1508 78.764 43.5024 79.7017Z" fill="#173D7B"/>
<path fill-rule="evenodd" clip-rule="evenodd" d="M52.7618 78.5296C52.7618 79.4672 51.9414 80.1705 51.0037 80.2877C50.066 80.2877 49.2456 79.5844 49.1284 78.6468C49.0112 77.7091 49.8316 76.8886 50.8865 76.7714C51.9414 76.6542 52.7618 77.5919 52.7618 78.5296Z" fill="#173D7B"/>
<path fill-rule="evenodd" clip-rule="evenodd" d="M62.0214 80.1705C61.6698 81.1082 60.7321 81.577 59.9116 81.3426C58.974 81.1082 58.5051 80.1705 58.6223 79.2328C58.8568 78.2952 59.7944 77.7091 60.8493 77.9435C61.787 78.178 62.373 79.2328 62.0214 80.1705Z" fill="#173D7B"/>
<path fill-rule="evenodd" clip-rule="evenodd" d="M70.3431 84.39C69.7571 85.2104 68.7022 85.3276 67.8818 84.8588C67.0613 84.39 66.8269 83.3351 67.2957 82.5146C67.7645 81.6942 68.8194 81.4598 69.7571 81.9286C70.812 82.5146 70.9292 83.6867 70.3431 84.39Z" fill="#173D7B"/>
<path fill-rule="evenodd" clip-rule="evenodd" d="M77.1412 90.9537C76.3208 91.5397 75.2659 91.4225 74.6798 90.7193C74.0938 90.016 74.0938 88.9611 74.7971 88.2579C75.5003 87.5546 76.6724 87.6718 77.3757 88.3751C78.0789 89.1955 77.8445 90.3676 77.1412 90.9537Z" fill="#173D7B"/>
<path fill-rule="evenodd" clip-rule="evenodd" d="M81.5952 99.2755C80.6575 99.6271 79.7198 99.1583 79.3682 98.3378C79.0166 97.5173 79.3682 96.4625 80.1887 95.9936C81.0091 95.5248 82.064 95.9936 82.5328 96.9313C83.0017 97.869 82.5328 98.9238 81.5952 99.2755Z" fill="#173D7B"/>
<path fill-rule="evenodd" clip-rule="evenodd" d="M83.4704 108.418C82.5328 108.418 81.7123 107.714 81.5951 106.894C81.4779 105.956 82.1812 105.136 83.1188 105.019C84.0565 104.901 84.9942 105.605 85.1114 106.542C85.2286 107.48 84.4081 108.418 83.4704 108.418Z" fill="#173D7B"/>
<path fill-rule="evenodd" clip-rule="evenodd" d="M72.5701 117.443C71.6324 117.091 71.1636 116.153 71.398 115.333C71.6324 114.512 72.5701 113.926 73.5077 114.161C74.4454 114.278 75.0315 115.333 74.797 116.271C74.5626 117.325 73.5077 117.794 72.5701 117.443Z" fill="#173D7B"/>
<path fill-rule="evenodd" clip-rule="evenodd" d="M67.7645 125.178C67.0612 124.475 66.944 123.42 67.5301 122.834C67.9989 122.131 69.171 122.014 69.8742 122.6C70.6947 123.186 70.8119 124.241 70.2259 125.061C69.6398 125.882 68.4677 125.882 67.7645 125.178Z" fill="#173D7B"/>
<path fill-rule="evenodd" clip-rule="evenodd" d="M60.2632 130.336C59.9115 129.398 60.2631 128.46 61.0836 127.991C61.9041 127.64 62.8417 127.874 63.4278 128.695C63.8966 129.515 63.6622 130.687 62.7245 131.156C61.6697 131.625 60.6148 131.273 60.2632 130.336Z" fill="#173D7B"/>
<path fill-rule="evenodd" clip-rule="evenodd" d="M51.2381 131.859C51.2381 130.922 52.0586 130.218 52.879 130.101C53.3479 130.101 53.6995 130.218 54.0511 130.57C54.4028 130.804 54.6372 131.273 54.6372 131.742C54.7544 132.211 54.52 132.68 54.2856 133.031C53.9339 133.383 53.5823 133.617 52.9963 133.617C52.0586 133.735 51.2381 132.914 51.2381 131.859Z" fill="#173D7B"/>
<path fill-rule="evenodd" clip-rule="evenodd" d="M42.4475 129.75C42.9164 128.812 43.854 128.578 44.6745 128.812C45.4949 129.046 45.9638 130.101 45.6122 131.039C45.3777 131.977 44.3229 132.445 43.3852 132.094C42.3303 131.742 41.9787 130.57 42.4475 129.75Z" fill="#173D7B"/>
<path fill-rule="evenodd" clip-rule="evenodd" d="M35.2978 124.124C36.001 123.538 37.1731 123.538 37.7592 124.124C38.3452 124.71 38.3452 125.765 37.7592 126.585C37.1731 127.288 36.001 127.405 35.2978 126.702C34.4773 125.882 34.4773 124.71 35.2978 124.124Z" fill="#173D7B"/>
<path fill-rule="evenodd" clip-rule="evenodd" d="M30.9611 116.036C31.4299 115.919 31.8988 115.919 32.2504 116.153C32.602 116.388 32.9536 116.622 33.0709 117.091C33.3053 117.912 32.9536 118.849 32.1332 119.318C31.3127 119.787 30.1407 119.318 29.789 118.38C29.5546 117.912 29.6718 117.443 29.789 116.974C30.1407 116.505 30.4923 116.153 30.9611 116.036Z" fill="#173D7B"/>
<path fill-rule="evenodd" clip-rule="evenodd" d="M30.375 107.011C31.3127 107.128 32.0159 107.949 32.0159 108.769C32.0159 109.238 31.7815 109.59 31.4299 109.941C31.0783 110.176 30.7266 110.41 30.2578 110.41C29.3201 110.41 28.4997 109.59 28.4997 108.535C28.3825 107.597 29.3201 106.894 30.375 107.011Z" fill="#173D7B"/>
<path fill-rule="evenodd" clip-rule="evenodd" d="M33.4225 98.455C34.2429 99.041 34.4773 99.9787 34.1257 100.799C33.7741 101.62 32.7192 101.854 31.7815 101.502C30.8439 101.151 30.4923 100.096 30.9611 99.1582C31.4299 98.2206 32.602 97.869 33.4225 98.455Z" fill="#173D7B"/>
<path fill-rule="evenodd" clip-rule="evenodd" d="M39.7517 91.8913C40.3378 92.7118 40.2205 93.7667 39.5173 94.3527C38.814 94.9388 37.7592 94.8216 37.1731 94.1183C36.4699 93.4151 36.5871 92.243 37.4076 91.6569C38.1108 90.8365 39.1657 91.0709 39.7517 91.8913Z" fill="#173D7B"/>
<path fill-rule="evenodd" clip-rule="evenodd" d="M48.1907 88.4923C48.3079 88.9611 48.1907 89.4299 47.9563 89.7816C47.7219 90.1332 47.3702 90.4848 47.0186 90.602C46.1982 90.8364 45.2605 90.2504 44.9089 89.4299C44.5572 88.4923 45.1433 87.4374 46.081 87.203C46.5498 87.0858 47.0186 87.0858 47.4875 87.4374C47.8391 87.5546 48.0735 88.0234 48.1907 88.4923Z" fill="#173D7B"/>
<path fill-rule="evenodd" clip-rule="evenodd" d="M57.333 88.7267C57.0985 89.6644 56.2781 90.2504 55.3404 90.1332C54.5199 90.016 53.8167 89.0783 53.9339 88.1407C54.0511 87.203 54.8716 86.4998 55.9264 86.617C56.8641 86.8514 57.5674 87.789 57.333 88.7267Z" fill="#173D7B"/>
<path fill-rule="evenodd" clip-rule="evenodd" d="M65.4203 92.7118C64.8343 93.5323 63.7794 93.6495 63.0762 93.1806C62.3729 92.7118 62.1385 91.6569 62.6073 90.8365C63.0762 90.016 64.131 89.6644 65.0687 90.2504C65.8892 90.8365 66.1236 92.0085 65.4203 92.7118Z" fill="#173D7B"/>
<path fill-rule="evenodd" clip-rule="evenodd" d="M71.398 99.7443C70.5775 100.213 69.5226 99.9787 69.0538 99.1582C68.585 98.455 68.8194 97.4001 69.5226 96.8141C70.2259 96.228 71.5152 96.3453 71.984 97.2829C72.4528 98.2206 72.2184 99.2754 71.398 99.7443Z" fill="#173D7B"/>
<path fill-rule="evenodd" clip-rule="evenodd" d="M73.8593 108.418C72.9217 108.418 72.1012 107.832 71.984 107.011C71.8668 106.542 72.1012 106.191 72.3356 105.839C72.57 105.487 72.9217 105.253 73.3905 105.136C73.8593 105.019 74.3282 105.136 74.6798 105.37C75.0314 105.605 75.2658 106.074 75.383 106.542C75.6174 107.48 74.797 108.418 73.8593 108.418Z" fill="#173D7B"/>
<path fill-rule="evenodd" clip-rule="evenodd" d="M61.7869 117.443C61.0837 116.857 60.8493 115.802 61.2009 115.099C61.4353 114.747 61.7869 114.513 62.1386 114.278C62.4902 114.161 62.959 114.044 63.4278 114.278C63.8967 114.395 64.2483 114.747 64.3655 115.216C64.4827 115.685 64.4827 116.271 64.2483 116.739C63.7795 117.794 62.6074 118.146 61.7869 117.443Z" fill="#173D7B"/>
<path fill-rule="evenodd" clip-rule="evenodd" d="M53.6996 122.248C53.5824 121.311 54.1684 120.373 54.9889 120.139C55.8093 119.904 56.747 120.373 57.2158 121.193C57.6847 122.131 57.0986 123.186 56.0437 123.538C54.7544 123.889 53.6996 123.186 53.6996 122.248Z" fill="#173D7B"/>
<path fill-rule="evenodd" clip-rule="evenodd" d="M44.5573 119.787C45.1433 119.084 46.1982 118.849 46.9015 119.201C47.2531 119.435 47.4875 119.787 47.7219 120.138C47.8391 120.49 47.9563 120.959 47.7219 121.428C47.6047 121.897 47.2531 122.248 46.7843 122.365C46.3154 122.483 45.7294 122.483 45.2605 122.248C44.2057 121.779 43.9713 120.607 44.5573 119.787Z" fill="#173D7B"/>
<path fill-rule="evenodd" clip-rule="evenodd" d="M39.8689 111.7C40.8066 111.582 41.7443 112.168 41.9787 112.989C42.2131 113.809 41.7443 114.747 40.9238 115.216C39.9862 115.685 38.9313 115.099 38.5797 114.044C38.1108 112.754 38.8141 111.7 39.8689 111.7Z" fill="#173D7B"/>
<path fill-rule="evenodd" clip-rule="evenodd" d="M42.2131 102.557C42.9164 103.143 43.1508 104.198 42.7992 104.901C42.5648 105.253 42.2131 105.487 41.8615 105.722C41.5099 105.839 41.041 105.956 40.5722 105.722C40.1034 105.605 39.7518 105.253 39.6345 104.784C39.5173 104.315 39.5173 103.729 39.7518 103.261C40.2206 102.206 41.5099 101.971 42.2131 102.557Z" fill="#173D7B"/>
<path fill-rule="evenodd" clip-rule="evenodd" d="M50.4177 97.869C50.5349 98.8066 49.9489 99.7443 49.1284 99.9787C48.308 100.213 47.3703 99.7443 46.9015 98.9238C46.4327 97.9862 47.0187 96.9313 48.0736 96.5797C49.2457 96.1108 50.3005 96.8141 50.4177 97.869Z" fill="#173D7B"/>
<path fill-rule="evenodd" clip-rule="evenodd" d="M59.4427 100.213C58.8567 100.916 57.8018 101.151 57.0986 100.799C56.7469 100.565 56.5125 100.213 56.2781 99.8615C56.1609 99.5099 56.0437 99.041 56.2781 98.5722C56.3953 98.1034 56.7469 97.7518 57.2158 97.6345C57.6846 97.5173 58.2706 97.5173 58.7395 97.7518C59.7944 98.2206 60.146 99.5099 59.4427 100.213Z" fill="#173D7B"/>
<path fill-rule="evenodd" clip-rule="evenodd" d="M64.2483 108.418C63.3106 108.535 62.3729 107.949 62.1385 107.128C61.9041 106.308 62.3729 105.37 63.1934 104.901C64.1311 104.433 65.1859 105.019 65.5376 106.074C65.8892 107.246 65.1859 108.301 64.2483 108.418Z" fill="#173D7B"/>
<path d="M157.996 234.042C181.208 228.528 195.556 205.241 190.042 182.029C184.528 158.817 161.241 144.47 138.029 149.984C114.817 155.497 100.47 178.784 105.984 201.996C111.497 225.208 134.784 239.556 157.996 234.042Z" fill="#5793CF"/>
</svg>
